<?xml version="1.0" encoding="UTF-8" standalone="no"?>
<!-- Created with Inkscape (http://www.inkscape.org/) -->
<svg xmlns:dc="http://purl.org/dc/elements/1.1/" xmlns:cc="http://creativecommons.org/ns#" xmlns:rdf="http://www.w3.org/1999/02/22-rdf-syntax-ns#" xmlns:svg="http://www.w3.org/2000/svg" xmlns="http://www.w3.org/2000/svg" xmlns:xlink="http://www.w3.org/1999/xlink" version="1.0" width="600" height="660" id="svg2">
  <desc id="desc4">Flag of Canton of Valais (Wallis)</desc>
  <metadata id="metadata49">
    <rdf:RDF>
      <cc:Work rdf:about="">
        <dc:format>image/svg+xml</dc:format>
        <dc:type rdf:resource="http://purl.org/dc/dcmitype/StillImage"/>
        <dc:title/>
        <dc:date>03-AUG-2006</dc:date>
        <dc:creator>
          <cc:Agent>
            <dc:title>Jérôme BLUM (wagner51)</dc:title>
          </cc:Agent>
        </dc:creator>
        <cc:license rdf:resource="http://web.resource.org/cc/PublicDomain"/>
        <dc:language>fr</dc:language>
        <dc:subject>
          <rdf:Bag>
            <rdf:li>gabarit modèle blason projet wikipédia</rdf:li>
          </rdf:Bag>
        </dc:subject>
      </cc:Work>
      <cc:License rdf:about="http://web.resource.org/cc/PublicDomain">
        <cc:permits rdf:resource="http://web.resource.org/cc/Reproduction"/>
        <cc:permits rdf:resource="http://web.resource.org/cc/Distribution"/>
        <cc:permits rdf:resource="http://web.resource.org/cc/DerivativeWorks"/>
      </cc:License>
    </rdf:RDF>
  </metadata>
  <defs id="defs6">
    <linearGradient id="linearGradient2893">
      <stop id="stop2895" style="stop-color:#ffffff;stop-opacity:0.3137255" offset="0"/>
      <stop id="stop2897" style="stop-color:#ffffff;stop-opacity:0.25098041" offset="0.19"/>
      <stop id="stop2901" style="stop-color:#6b6b6b;stop-opacity:0.1254902" offset="0.60000002"/>
      <stop id="stop2899" style="stop-color:#000000;stop-opacity:0.1254902" offset="1"/>
    </linearGradient>
    <linearGradient id="linearGradient2885">
      <stop id="stop2887" style="stop-color:#ffffff;stop-opacity:1" offset="0"/>
      <stop id="stop2891" style="stop-color:#ffffff;stop-opacity:1" offset="0.22857143"/>
      <stop id="stop2889" style="stop-color:#000000;stop-opacity:1" offset="1"/>
    </linearGradient>
    <linearGradient id="linearGradient2955">
      <stop id="stop2867" style="stop-color:#fd0000;stop-opacity:1" offset="0"/>
      <stop id="stop2873" style="stop-color:#e77275;stop-opacity:0.65882355" offset="0.5"/>
      <stop id="stop2959" style="stop-color:#000000;stop-opacity:0.32291666" offset="1"/>
    </linearGradient>
    <radialGradient cx="225.52438" cy="218.90099" r="300" fx="225.52438" fy="218.90099" id="radialGradient2961" xlink:href="#linearGradient2955" gradientUnits="userSpaceOnUse" gradientTransform="matrix(-4.167939e-4,2.182867,-1.884232,-3.599562e-4,615.5972,-289.1214)"/>
    <polygon points="0.58778525,0.80901699 -0.95105652,-0.30901699 0.95105652,-0.30901699 -0.58778525,0.80901699 0,-1 0,-1 " transform="scale(53,53)" id="star"/>
    <clipPath id="clip">
      <path d="m 0,-200 0,800 300,0 0,-800 -300,0 z" id="path10"/>
    </clipPath>
    <radialGradient cx="225.52438" cy="218.90099" r="300" fx="225.52438" fy="218.90099" id="radialGradient1911" xlink:href="#linearGradient2955" gradientUnits="userSpaceOnUse" gradientTransform="matrix(-4.167939e-4,2.182867,-1.884232,-3.599562e-4,615.5972,-289.1214)"/>
    <radialGradient cx="225.52438" cy="218.90099" r="300" fx="225.52438" fy="218.90099" id="radialGradient2865" xlink:href="#linearGradient2955" gradientUnits="userSpaceOnUse" gradientTransform="matrix(0,1.748721,-1.593162,-1.049767e-7,551.7876,-191.2898)"/>
    <radialGradient cx="225.52438" cy="218.90099" r="300" fx="225.52438" fy="218.90099" id="radialGradient2871" xlink:href="#linearGradient2955" gradientUnits="userSpaceOnUse" gradientTransform="matrix(0,1.386237,-1.323286,-5.741131e-8,-158.0823,-109.5408)"/>
    <radialGradient cx="221.44487" cy="226.33101" r="300" fx="221.44487" fy="226.33101" id="radialGradient3163" xlink:href="#linearGradient2893" gradientUnits="userSpaceOnUse" gradientTransform="matrix(1.353218,0,0,1.348928,-77.62935,-85.74693)"/>
    <radialGradient cx="-483.50824" cy="153.9283" r="300.00003" fx="-483.50824" fy="153.9283" id="radialGradient14758" xlink:href="#linearGradient2955-8" gradientUnits="userSpaceOnUse" gradientTransform="matrix(0,2.342476,-2.291353,0,562.9128,1323.77)"/>
    <radialGradient cx="-483.50824" cy="153.9283" r="300.00003" fx="-483.50824" fy="153.9283" id="radialGradient13767" xlink:href="#linearGradient2955-8" gradientUnits="userSpaceOnUse" gradientTransform="matrix(0,2.342476,-2.291353,0,562.9128,1323.77)"/>
    <radialGradient cx="-483.50824" cy="153.9283" r="300.00003" fx="-483.50824" fy="153.9283" id="radialGradient1357" xlink:href="#linearGradient2955-8" gradientUnits="userSpaceOnUse" gradientTransform="matrix(0,2.342476,-2.291353,0,562.9128,1323.77)"/>
    <radialGradient cx="225.52438" cy="218.90099" r="300" fx="225.52438" fy="218.90099" id="radialGradient1911-7" xlink:href="#linearGradient2955-8" gradientUnits="userSpaceOnUse" gradientTransform="matrix(-4.167939e-4,2.182867,-1.884232,-3.599562e-4,1395.597,-309.1214)"/>
    <clipPath id="clip-5">
      <path d="m 0,-200 0,800 300,0 0,-800 -300,0 z" id="path10-1"/>
    </clipPath>
    <polygon points="0.58778525,0.80901699 -0.95105652,-0.30901699 0.95105652,-0.30901699 -0.58778525,0.80901699 0,-1 0,-1 " transform="scale(53,53)" id="star-5"/>
    <radialGradient cx="225.52438" cy="218.90099" r="300" fx="225.52438" fy="218.90099" id="radialGradient2961-4" xlink:href="#linearGradient2955-8" gradientUnits="userSpaceOnUse" gradientTransform="matrix(-4.167939e-4,2.182867,-1.884232,-3.599562e-4,615.5972,-289.1214)"/>
    <linearGradient id="linearGradient2955-8">
      <stop id="stop2965" style="stop-color:#ffffff;stop-opacity:0" offset="0"/>
      <stop id="stop2959-2" style="stop-color:#000000;stop-opacity:0.64583331" offset="1"/>
    </linearGradient>
  </defs>
  <g id="layer3" style="display:inline">
    <path d="m 300,658.5 c 0,0 298.50001,-112.32031 298.50001,-397.77183 0,-285.451524 0,-258.5516935 0,-258.5516935 l -597.00001,0 0,258.5516935 C 1.5,546.17969 300,658.5 300,658.5 z" id="path2855" style="fill:#fcef3c;fill-opacity:1;fill-rule:evenodd;stroke:none"/>
    <g transform="matrix(0.9,0,0,0.9,30.024322,33.987521)" id="g3075" style="fill:#000000;fill-opacity:1;stroke:#414141;stroke-opacity:1">
      <path d="m 246.6882,332.66482 c -7.89515,0.92312 -17.7254,0.90316 -25.55005,0.0649 -12.91575,-0.73695 -21.97629,-0.22758 -29.35078,3.04087 -8.57897,7.05552 -9.97111,17.11983 -9.67718,26.41256 0.4355,4.95483 1.07073,10.89732 6.14029,14.52403 3.39133,1.01636 2.5931,0.76509 0.88343,4.5126 -1.69811,5.46377 0.72672,8.3982 2.80584,9.71781 0.61108,0.47579 1.52376,0.70513 1.82088,2.2047 -0.66685,6.47662 -1.40333,10.84643 -4.40569,15.41598 -1.37924,1.20325 -2.07653,-0.25561 -3.08843,-0.79455 l -4.63167,-6.10653 c 0.12281,-2.65975 0.4685,-3.39688 1.1691,-5.1893 -1.14121,-0.13979 -1.81854,1.02847 -2.32894,3.51684 -3.61178,-5.94307 -6.45016,-14.18278 -8.36215,-21.34043 -0.65057,-6.06379 1.42707,-10.82845 1.63294,-16.98666 0.27736,-4.15954 -0.65494,-8.47623 0.0666,-13.55814 l 2.46151,-17.20533 c 2.04116,-5.71417 5.14684,-7.54747 12.77079,-10.47218 8.93227,-3.48456 22.03992,-5.82836 30.75809,-9.88134 0.73236,-0.44025 4.72441,-1.33081 9.38014,-6.35285 l 17.50537,28.47698 z" id="path2456" style="fill:#000000;fill-opacity:1;fill-rule:evenodd;stroke:#414141;stroke-width:2.65734124;stroke-miterlimit:4;stroke-opacity:1;stroke-dasharray:none;display:inline"/>
      <g transform="matrix(1.8925102,0.89976522,-0.89976522,1.8925102,257.40227,86.86654)" id="g11258" style="fill:#000000;fill-opacity:1;stroke:#414141;stroke-width:1.26811051;stroke-miterlimit:4;stroke-opacity:1;stroke-dasharray:none"/>
      <path d="m 408.74718,405.0024 c 1.68744,6.03939 2.50946,14.70331 5.68995,20.64885 0.95722,2.81681 4.66789,5.04144 2.78783,9.9752 l -15.03167,24.64037 -18.50808,13.25422 -4.37132,16.84698 c -0.22995,6.02141 -2.35005,10.02512 0.45925,18.11337 1.75259,4.28596 -0.0152,4.10781 -1.90058,4.67305 -3.96982,0.40498 -2.8761,3.40661 -2.74442,5.38956 0.31802,5.23038 0.97321,8.65237 -0.73322,13.24994 -0.80959,4.05105 -16.08259,5.53119 -15.14786,2.01437 1.43112,-3.77754 2.25982,-5.46016 2.51041,-9.64695 1.45065,-0.85368 5.09436,-1.67525 1.19873,-5.9688 l 2.3782,-12.02492 3.56929,-13.97221 4.91225,-21.93568 c 1.34268,-8.36234 22.18086,-17.39595 22.33787,-26.01386 0.34828,-6.65324 -0.0524,-9.02081 -2.1253,-15.09211 -2.41796,-6.31552 -4.75448,-12.1129 -9.46822,-17.56331 -4.22856,-4.55523 -7.83624,-17.12559 -13.63291,-16.07218 11.03222,-4.33856 26.52189,5.65118 37.81852,9.47673 l 9.2e-4,0.006 z m 0.0666,24.1407 c 1.19921,5.3576 0.76506,6.87673 -0.40459,13.61639 1.84216,-2.19447 4.24538,-9.14896 0.40459,-13.61639 z" id="path3142" style="fill:#000000;fill-opacity:1;fill-rule:evenodd;stroke:#414141;stroke-width:2.65734124;stroke-miterlimit:4;stroke-opacity:1;stroke-dasharray:none;display:inline"/>
      <path d="m 367.26279,384.60492 c -1.75628,-0.63962 -12.92895,3.50885 -18.43492,1.15056 -4.3432,-1.86028 -6.94018,-3.47615 -13.5313,-3.07631 -4.01456,0.24352 0.36698,3.23134 -6.83532,6.76172 12.60016,3.94073 28.0548,5.15708 39.138,0.064 3.77253,-2.13105 4.2724,-2.70879 -0.33646,-4.9 z" id="path2420" style="fill:#000000;fill-opacity:1;fill-rule:evenodd;stroke:#414141;stroke-width:2.65734124;stroke-linecap:butt;stroke-linejoin:miter;stroke-miterlimit:4;stroke-opacity:1;stroke-dasharray:none"/>
      <path d="m 294.78206,241.20888 c -29.75475,-14.3512 -60.40655,38.28953 -67.70958,37.07713 -2.442,7.73804 -3.56441,14.66237 -3.69541,20.92395 -7.29587,-2.9994 -15.02599,-6.95657 -21.5271,-9.13134 -7.72917,-2.63419 -11.31835,-3.22498 -16.54464,-0.14214 L 172.412,301.58345 c -3.80768,3.44202 -5.85754,7.35797 -8.73358,10.37577 -4.10073,4.59892 -8.73723,6.87884 -12.11959,11.95353 -3.11358,6.72261 -6.18969,14.88378 -7.21992,21.76156 1.98518,-1.58478 3.22497,-2.05672 4.01221,-1.21874 -1.68576,0.92838 -2.39707,1.31308 -4.19422,3.2777 l -0.36899,7.60962 c 0.43231,1.06187 0.0544,2.65357 1.88432,2.61226 5.23188,-1.58819 8.58377,-4.48057 13.24245,-9.02899 0.73186,-1.34214 0.18206,-2.11615 0.0173,-2.87288 -0.7521,-2.3446 -0.72613,-6.10843 4.07631,-9.21852 3.71259,-1.7843 4.1275,-1.10282 2.17297,-4.05476 -1.57255,-6.03162 1.76566,-11.01292 4.60346,-15.09786 5.72352,-7.32685 13.2283,-14.12552 24.3357,-14.05322 7.75757,2.21041 15.04487,7.59215 24.49491,16.4271 21.70959,22.10992 50.53905,34.29887 78.26497,46.83394 5.13574,2.5239 10.38579,5.27077 15.74942,7.48782 7.32611,2.47891 13.21733,5.16193 21.81156,7.24369 11.96759,6.20214 21.52224,8.75637 29.67442,9.14299 9.81396,14.67559 43.03106,19.61261 53.97389,29.88349 4.18267,4.57353 8.98102,10.38803 12.41818,16.81537 2.81987,6.46065 4.28692,13.7183 5.03057,21.39461 0.21586,8.03796 -0.91531,15.83939 -1.85371,23.88375 l -5.79065,31.39084 c -0.99992,4.80525 -2.31237,10.12414 -4.46575,14.55033 -0.67169,1.74368 -2.4671,3.40854 -3.6959,4.67931 0.24826,0.95602 1.7421,1.12161 2.57617,1.286 -1.06042,1.12992 -4.02337,0.83581 -5.2933,0.30317 l -7.13927,5.86199 c -1.5677,1.36529 -0.66629,2.36642 1.37285,3.04339 1.07906,-2.0394 2.38032,-4.35857 3.93685,-3.76786 -0.55081,0.76867 -1.96445,2.96779 -1.57299,4.34002 4.5178,0.76194 10.97527,0.4955 12.51197,-0.91693 5.27397,-4.28935 5.33265,-12.26099 9.32548,-15.48874 2.32282,-1.32133 4.27057,-1.13477 3.87132,-5.8219 -0.2273,-5.96137 1.21888,-11.68489 2.23144,-17.32899 l 3.59787,-20.84773 c 1.64588,-8.13972 2.85978,-16.22569 5.09052,-24.24514 1.203,-5.83998 2.25612,-9.49769 4.05428,-14.07167 1.38867,-4.42028 -0.9878,-6.13836 -3.50463,-9.38998 -4.45907,-6.70168 -7.09862,-12.02617 -10.04109,-21.8152 -2.0111,-6.69061 -22.74434,-12.81182 -22.59953,-19.9323 0.0332,-2.915 0.11573,-6.17004 0.33461,-9.34236 1.2506,-0.16823 2.54505,-0.68919 3.85239,-1.78512 3.04385,-3.0691 5.58501,-5.17434 6.71068,-9.98894 1.05224,-6.60502 0.52448,-12.5257 -1.03975,-18.70034 -1.56638,-6.17878 -4.09596,-10.72029 -7.11917,-15.58333 -6.24173,-9.49206 -13.42116,-16.36353 -24.78416,-22.2654 -10.98014,-5.30567 -21.95902,-10.68528 -32.90371,-15.88876 -12.49541,-6.85963 -23.31416,-14.30077 -34.96829,-21.34522 -7.78832,-5.54056 -13.46142,-11.02764 -15.27624,-19.82929 -5.88229,-9.83088 -11.99902,-15.6541 -18.17454,-18.63265 z m 124.97338,135.67348 c 0.55654,1.81053 0.41767,4.18932 -1.19028,7.40305 0.16094,-2.00344 0.3634,-3.96893 0.70338,-5.73426 0.21736,-0.54837 0.33933,-1.11683 0.4869,-1.66879 z m 27.17222,66.91637 c 2.56946,1.60267 0.84886,9.51287 0.10713,11.63658 0.2572,-6.77726 0.0668,-10.00554 -2.48494,-11.66367 0.71571,-0.26304 1.32231,-0.29242 1.80405,-0.18439 0.21078,0.0473 0.40246,0.10464 0.57372,0.21156 z" id="path3156" style="fill:#000000;fill-opacity:1;fill-rule:evenodd;stroke:#414141;stroke-width:2.65734124;stroke-miterlimit:4;stroke-opacity:1;stroke-dasharray:none;display:inline"/>
      <path d="m 222.05154,299.10309 c 6.00412,4.27053 12.80695,3.13041 19.60295,3.75856" id="path2458" style="fill:#000000;fill-opacity:1;stroke:#414141;stroke-width:2.65734124;stroke-linecap:butt;stroke-linejoin:miter;stroke-miterlimit:4;stroke-opacity:1;stroke-dasharray:none"/>
      <path d="m 364.59756,390.56588 c -11.70052,-9.20082 -8.86494,-24.558 -8.77595,-37.32332" id="path2466" style="fill:#000000;fill-opacity:1;stroke:#414141;stroke-width:2.65734124;stroke-linecap:butt;stroke-linejoin:miter;stroke-miterlimit:4;stroke-opacity:1;stroke-dasharray:none"/>
      <g transform="matrix(1.7077233,0.47128467,-0.47128467,1.7077233,59.094549,-32.728313)" id="g2478" style="fill:#000000;fill-opacity:1;stroke:#414141;stroke-width:1.5;stroke-miterlimit:4;stroke-opacity:1;stroke-dasharray:none">
        <g transform="translate(26.048423,-139.05783)" id="g2468" style="fill:#000000;fill-opacity:1;stroke:#414141;stroke-width:1.5;stroke-miterlimit:4;stroke-opacity:1;stroke-dasharray:none;display:inline">
          <path d="m 131.42154,202.15742 c 0.46715,-0.63818 0.63645,-4.01796 -3.44097,-5.51024 -2.33736,-0.5098 -4.28217,-1.63286 -5.89631,-4.14846 -1.74218,-2.25884 -3.14311,-4.271 -3.86421,-7.93459 -0.58937,-2.17184 -0.0519,-4.27313 1.63636,-2.36653 0.64492,0.93473 1.11419,1.87741 1.70938,2.94265 1.65752,2.72726 3.6473,5.49962 6.02804,7.67359 1.36602,1.48962 3.36055,4.35163 8.6511,3.0254 2.50666,-0.46842 4.91861,-2.71453 6.31955,-5.01476 1.23164,-2.38509 0.80628,-5.02112 0.89516,-7.40622 -0.29574,-2.94052 -0.29997,-5.71766 -1.87232,-8.10276 -0.42378,-1.70341 0.36981,-2.02648 1.55806,-0.783 2.03951,2.00155 2.56062,3.55165 3.24258,5.76911 0.50842,4.13202 0.80786,8.51496 0.34071,12.86023 1.01895,0.0414 2.10405,0.25092 3.12512,0.25092 3.99436,0.21114 7.42739,-0.42492 10.86995,-1.53365 3.22829,-0.97823 5.09056,-1.78618 6.83432,-3.49171 1.57077,-1.31987 3.05053,-3.69489 3.90019,-5.73994 0.67772,-2.13047 0.76872,-4.22538 1.27925,-6.52773 0.38198,-1.57715 1.86175,-3.03389 2.96324,-0.39787 0.30791,2.21534 -0.0804,3.52513 -0.84543,5.86832 -0.46663,1.3204 -3.25686,7.7399 -5.33763,11.0226 1.14064,1.26417 5.78627,0.28806 7.52844,-0.52042 1.40094,-0.89282 3.42034,-2.12197 4.86466,-3.05829 1.27343,-1.19149 2.34582,-2.46627 3.65206,-4.55694 1.35967,-2.79358 1.82894,-4.84288 0.51054,-9.48894 -1.27344,-4.38877 -3.22829,-8.01735 -4.80117,-12.15149 -0.1693,-2.02648 0.40737,-3.72406 3.26532,-1.3326 0.97769,2.21534 2.00036,4.09488 2.80875,6.4386 1.61415,3.11029 2.50454,6.51287 3.77956,9.66719 1.02531,2.94212 3.71397,2.86573 5.44556,-0.45835 1.5295,-3.0254 2.16595,-6.89641 2.37651,-9.87832 0.0418,-5.32562 0.55604,-9.60034 1.19461,-14.37319 0.7957,-1.42756 1.20889,-3.39622 2.96376,-0.0493 0.85336,3.57659 0.83061,5.854 0.43171,11.01199 -0.93378,4.00522 -1.87233,7.50542 -2.21092,11.8942 -1.05017,3.30762 0.69835,4.15111 2.48391,3.46889 2.08077,-1.10661 2.96165,-2.33523 3.93669,-3.57022 2.12469,-2.85352 3.27802,-5.54737 4.93925,-8.69903 1.03113,-0.95967 2.3707,-0.78354 1.85169,2.66042 -1.65752,4.51556 -3.87056,8.1521 -8.24795,12.37111 -2.08289,1.80739 -0.77665,3.95589 1.81677,3.16228 3.14311,-0.76657 5.21806,-2.25832 7.72684,-3.40843 0.97769,-0.5533 2.05008,-1.32411 2.86853,0.52413 -0.12591,1.53366 -0.64068,2.07211 -3.83564,3.72566 -7.05336,2.47051 -11.30854,2.21746 -18.44654,2.98402 -5.86298,1.15011 -9.42986,1.96071 -15.6362,5.02961 -3.78168,1.40475 -6.12751,3.27845 -10.97364,4.2169 -3.61027,-0.0414 -9.72561,-1.23711 -14.69766,-1.45037 -5.94763,-0.42493 -8.40085,-0.3236 -15.71027,5.34207 -3.21982,1.93948 -4.97046,1.69493 -4.85883,-0.2053 l -3.13518,0.25092" id="path2470" style="fill:#000000;fill-opacity:1;fill-rule:evenodd;stroke:#414141;stroke-width:1.5;stroke-miterlimit:4;stroke-opacity:1;stroke-dasharray:none"/>
        </g>
        <path d="m 142.77096,151.50981 c 0.0302,-5.24925 -1.7441,-9.68617 3.91735,-18.29686 -4.23455,5.31078 -8.67808,3.75696 -9.50446,5.70652 -1.19783,-10.63932 1.70253,-9.39606 8.87171,-19.82719 -5.40217,3.75695 -9.45261,3.84024 -11.06041,6.79721 2.7201,-12.25354 0.94099,-15.19909 9.67354,-19.95372 -1.80037,0.13687 -9.14025,2.66919 -11.56438,5.59114 -2.37942,-1.86283 0.0563,-5.68028 1.40305,-7.62372 1.86809,-2.42913 3.27802,-3.54582 5.70003,-5.930913 2.61618,-3.13522 5.29055,-6.87573 7.22689,-10.99926 3.10607,0.62121 4.10228,-0.3671 4.01128,-1.72039 -1.65964,0.99892 -2.49872,1.12146 -3.45948,0.64455 -1.47342,-0.77081 -2.94895,-1.54161 -4.42501,-2.31454 -3.39918,-1.44878 -7.10679,-2.76441 -11.44239,-2.72091 -2.6331,-0.25463 -5.91271,0.46206 -7.73953,0.20743 -1.33745,0 -1.60992,-1.54427 -1.99665,-2.99888 1.42633,1.23127 5.14822,1.62914 5.86721,0.1183 -2.69077,0.31935 -4.01976,0.11193 -5.70585,-1.11086 -0.67772,-0.25463 -1.84323,-0.01856 -1.84323,-0.91351 -0.42377,-1.3639 -0.17988,-1.77609 0.15872,-3.22487 1.06234,-2.04505 1.71361,-3.27579 5.98942,-3.69648 7.18139,-0.08328 11.93018,-1.60421 17.07206,-3.18084 3.69544,-0.98035 5.83229,-2.5469 11.69739,-2.20526 0.53275,-1.18088 2.14267,-1.33048 3.31452,-1.01112 0.25448,2.55698 2.43894,1.65143 4.94772,0.57187 1.14699,1.10661 2.96323,1.1273 3.64307,2.53258 -1.21683,0.84508 -1.48771,1.22014 -2.76696,2.00155 1.67605,0.59681 2.39503,-0.42492 4.8874,-2.69384 0.29998,-0.13051 1.13271,-0.83712 1.34539,-1.00741 1.78344,-1.14958 3.12301,-2.63974 7.37184,-3.19517 2.2506,-0.42492 4.7033,-0.48699 8.4855,0.78938 -3.52561,3.19569 -4.44352,6.32667 -9.54361,8.41363 -1.47341,0.8472 -3.2013,1.44029 -5.10061,1.85885 -1.72948,0.29389 -3.14099,0.58832 -3.36425,1.4753 2.604,-0.55118 3.28807,-0.59044 3.69703,0.13475 1.1655,5.21793 2.55427,11.03267 3.09391,16.4018 0.63645,5.49538 0.5518,10.918623 1.40093,16.372623 0.55181,2.55486 2.96965,10.72189 5.56361,13.32025 0.22532,6.46182 3.10707,11.17325 -2.91791,19.42219 -0.9091,-8.59313 -3.60085,-12.95007 -4.94627,-12.28034 -1.34542,0.66972 0.80034,11.48075 -5.77764,17.21967 0.68149,-8.61504 -2.74111,-13.55782 -4.66398,-12.71794 -1.92287,0.83986 -0.53116,10.59715 -9.68967,18.51314 -0.0842,-13.69746 0.77098,-12.20647 -1.59448,-9.946 -3.24412,3.10015 -7.35673,8.42459 -10.2328,11.47729 z m 35.04849,-84.521543 c -0.0286,-0.02706 0.88881,-0.78142 1.51098,-0.8228 3.4907,-1.71562 3.4616,-3.19569 0.15713,-2.30446 -1.67181,0.24031 -7.59722,4.78717 -8.90716,5.193 -1.06869,0.98247 1.4258,0.73579 1.86386,0.53686 -0.54546,0.27957 -1.07874,0.6403 -1.77921,0.73579 -1.86809,0.55331 -1.5295,-1.3204 -0.67772,-1.70341 2.76061,-0.63819 5.86298,-3.749 9.26268,-5.32563 2.59131,-0.89335 3.99436,-0.04138 3.1865,1.31987 -0.67772,1.27637 -2.2506,1.66204 -3.48435,2.00155 -0.7793,0.40848 -0.97558,0.62386 -1.06816,1.1273 -0.2111,-0.27957 -0.31215,-0.24615 -0.0624,-0.75807 l -0.002,0 z m -51.15056,5.49962 c 0.7502,-0.83924 0.73169,-1.38459 0.0476,-1.23286 -1.15546,0.76656 -2.22362,1.48326 -3.23676,2.27104 -0.71052,-0.23024 -0.59518,0.86417 -0.35129,1.17716 -0.64439,0.13846 -0.73962,-0.49972 -0.35711,-1.52145 1.44432,-0.59468 2.46328,-1.53313 3.7383,-2.30022 1.99612,-0.3809 1.10361,1.2769 0.15924,1.60633 z" id="path2472" style="fill:#000000;fill-opacity:1;fill-rule:evenodd;stroke:#414141;stroke-width:1.5;stroke-miterlimit:4;stroke-opacity:1;stroke-dasharray:none;display:inline"/>
        <path d="m 27.392963,57.273537 a 1.1976256,1.2484339 0 1 1 -2.395251,0 1.1976256,1.2484339 0 1 1 2.395251,0 z" transform="translate(123.82528,11.906727)" id="path2474" style="fill:#000000;fill-opacity:1;stroke:#414141;stroke-width:1.5;stroke-miterlimit:4;stroke-opacity:1;stroke-dasharray:none"/>
        <path d="m 145.74985,71.647787 c 1.15208,-3.9876 1.04945,-4.05337 3.80147,-4.05145 2.75203,0.0019 8.35872,0.07151 8.35872,0.07151 0,0 -4.0853,1.28102 -6.07116,2.54032 -1.98586,1.2593 -1.50838,1.52652 -6.08903,1.43962 z" id="path2476" style="fill:#000000;fill-opacity:1;stroke:#414141;stroke-width:1.5;stroke-linecap:butt;stroke-linejoin:miter;stroke-miterlimit:4;stroke-opacity:1;stroke-dasharray:none;display:inline"/>
      </g>
    </g>
    <path d="m 110.6546,30.379837 13.81086,42.073704 44.02821,-0.05112 -35.74668,26.136387 13.65412,41.857512 L 110.4976,114.4758 74.908103,140.39631 88.465181,98.240161 52.815533,72.402412 97.097801,72.268996 110.6546,30.379873 z" id="path8347" style="fill:#000000;fill-opacity:1;stroke:#414141;stroke-width:2.70000172;stroke-miterlimit:4;stroke-opacity:1;stroke-dasharray:none;stroke-dashoffset:0"/>
    <path d="m 491.4529,30.379837 13.81086,42.073704 44.02821,-0.05112 -35.74668,26.136387 13.65412,41.857512 -35.90351,-25.92052 -35.5895,25.92051 13.55708,-42.156149 -35.64965,-25.837749 44.28227,-0.133416 13.5568,-41.889123 z" id="path8347-1" style="fill:#000000;fill-opacity:1;stroke:#414141;stroke-width:2.70000172;stroke-miterlimit:4;stroke-opacity:1;stroke-dasharray:none;stroke-dashoffset:0;display:inline"/>
  </g>
  <g id="layer4"/>
  <g id="layer2">
    <path d="m 300.00001,658.5 c 0,0 298.5,-112.32031 298.5,-397.77183 0,-285.451504 0,-258.5516835 0,-258.5516835 l -597.00001,0 0,258.5516835 C 1.5,546.17969 300.00001,658.5 300.00001,658.5 z" id="path2875" style="fill:url(#radialGradient3163);fill-opacity:1;fill-rule:evenodd;stroke:none"/>
  </g>
  <g id="layer1">
    <path d="m 299.99999,658.50028 c 0,0 -298.49999,-112.32036 -298.49999,-397.772 0,-285.451616 0,-258.5517843 0,-258.5517843 l 596.99999,0 0,258.5517843 c 0,285.45164 -298.5,397.772 -298.5,397.772 z" id="path1411" style="fill:none;stroke:#000000;stroke-width:3.00000048;stroke-linecap:butt;stroke-linejoin:miter;stroke-miterlimit:4;stroke-opacity:1;stroke-dasharray:none"/>
  </g>
</svg>