<?xml version="1.0" standalone="no"?>
<!DOCTYPE svg PUBLIC "-//W3C//DTD SVG 20010904//EN"
 "http://www.w3.org/TR/2001/REC-SVG-20010904/DTD/svg10.dtd">
<svg version="1.0" xmlns="http://www.w3.org/2000/svg"
 width="136.000000pt" height="136.000000pt" viewBox="0 0 136.000000 136.000000"
 preserveAspectRatio="xMidYMid meet">
<metadata>
Created by potrace 1.11, written by Peter Selinger 2001-2013
</metadata>
<g transform="translate(0.000000,136.000000) scale(0.100000,-0.100000)"
fill="#000000" stroke="none">
<path d="M1190 1135 c-13 -23 -15 -24 -32 -9 -17 16 -19 14 -39 -35 -12 -28
-25 -51 -29 -51 -5 0 -31 -31 -58 -68 -79 -105 -77 -104 -188 -106 -54 -1
-129 4 -168 11 -76 15 -103 12 -144 -15 -16 -11 -47 -17 -82 -18 -73 -1 -104
-19 -203 -116 -45 -44 -113 -105 -150 -136 -62 -51 -105 -111 -92 -132 5 -9
118 -24 155 -21 41 4 122 47 180 98 49 44 52 45 28 13 -29 -38 -56 -63 -85
-79 -19 -10 -83 -161 -83 -196 0 -10 11 -33 26 -52 21 -27 32 -33 64 -33 21 0
42 4 45 10 10 16 -14 49 -39 56 -44 11 -40 76 9 140 19 25 37 36 68 41 23 4
45 6 49 5 4 -1 34 23 66 53 47 43 61 52 66 39 13 -33 5 -73 -23 -114 -27 -41
-28 -46 -16 -80 7 -20 27 -62 45 -93 31 -55 33 -57 75 -57 28 0 45 5 48 14 6
15 -16 39 -44 49 -21 7 -49 106 -37 130 5 9 29 36 53 58 35 32 45 50 51 85 3
24 8 44 9 44 2 0 15 -4 28 -9 14 -6 51 -13 84 -16 122 -13 114 -5 129 -120 10
-76 10 -75 48 -157 l36 -78 55 0 c30 0 55 4 55 9 0 12 -26 38 -49 50 -19 11
-41 73 -40 112 1 22 2 21 11 -6 6 -16 32 -59 59 -95 47 -62 51 -65 92 -65 36
0 42 3 39 20 -4 22 -21 37 -34 29 -4 -3 -24 30 -44 73 -34 71 -37 86 -38 168
0 73 3 98 20 130 12 22 25 69 28 105 9 87 27 108 91 111 28 1 56 4 63 7 22 8
13 37 -23 72 -19 19 -35 41 -35 51 0 9 -9 27 -19 41 -11 13 -22 46 -26 73 -13
84 -31 105 -55 60z m37 -105 c-1 -8 7 -23 19 -33 13 -9 25 -30 29 -46 3 -15
19 -41 35 -56 17 -16 30 -33 30 -37 0 -5 -30 -8 -67 -7 -53 1 -73 6 -90 22
-20 18 -23 18 -23 4 0 -9 11 -24 25 -33 22 -14 23 -18 10 -37 -7 -12 -17 -49
-20 -82 -4 -33 -17 -80 -28 -105 -16 -35 -21 -65 -21 -136 0 -84 3 -96 38
-171 25 -54 46 -84 60 -88 20 -7 20 -8 -4 -12 -18 -4 -30 2 -48 24 -79 94
-122 200 -103 254 5 16 17 37 26 45 20 21 11 31 -11 13 -29 -24 -44 -75 -44
-147 0 -87 23 -158 59 -177 l26 -14 -36 -1 c-35 0 -37 2 -72 77 -19 43 -38
103 -42 133 -4 30 -9 64 -12 75 -2 11 -5 52 -6 92 -1 39 -5 75 -9 79 -8 7 -10
-8 -12 -83 l0 -32 -56 5 c-30 3 -82 12 -115 20 -52 13 -82 19 -145 29 -11 1
-14 12 -12 38 2 24 -1 37 -8 37 -7 0 -10 -8 -7 -20 3 -14 -11 -38 -52 -83 -79
-90 -110 -113 -158 -119 -65 -9 -112 -53 -133 -129 -10 -34 5 -89 24 -89 7 0
21 -7 32 -15 18 -14 17 -15 -19 -13 -30 2 -42 9 -56 33 -19 30 -19 30 13 113
26 64 42 90 72 115 68 56 89 89 97 161 12 98 85 199 164 226 19 7 52 6 105 -3
88 -16 245 -14 276 2 12 6 48 47 82 90 33 44 70 83 82 86 13 4 32 19 44 33
l20 25 -2 -39 c-3 -41 2 -30 21 46 l9 35 8 -45 c5 -25 7 -52 5 -60z m-77 49
c-14 -26 -18 -24 -12 6 2 14 8 22 13 19 5 -3 5 -14 -1 -25z m-670 -259 c0 -5
-4 -10 -9 -10 -13 0 -71 -119 -71 -145 0 -65 -159 -198 -245 -205 -17 -2 -53
1 -82 5 -50 7 -51 8 -42 34 5 15 33 45 62 67 29 21 94 80 145 131 52 50 113
101 135 112 44 22 107 28 107 11z m174 -237 c38 -6 38 -6 33 -46 -4 -31 -17
-52 -58 -93 -49 -50 -52 -54 -47 -96 8 -66 33 -118 57 -118 12 0 21 -5 21 -11
0 -6 -14 -9 -31 -7 -28 3 -36 11 -69 77 -40 78 -40 85 -3 140 23 34 28 79 14
116 -17 43 2 52 83 38z"/>
</g>
</svg>
