<?xml version="1.0" encoding="UTF-8"?>
<svg xmlns="http://www.w3.org/2000/svg" xmlns:xlink="http://www.w3.org/1999/xlink" width="600" height="660">
<defs>
  <radialGradient id="rg" gradientUnits="userSpaceOnUse" cx="220" cy="220" r="405">
    <stop style="stop-color:#fff;stop-opacity:.3" offset="0"/>
    <stop style="stop-color:#fff;stop-opacity:.2" offset=".2"/>
    <stop style="stop-color:#666;stop-opacity:.1" offset=".6"/>
    <stop style="stop-color:#000;stop-opacity:.13" offset="1"/>
  </radialGradient>
  <path id="shield" d="m2,2v257c0,286 298,398 298,398c0,0 298-112 298-398V2z"/>
</defs>
<use id="shine" xlink:href="#shield" fill="#0088ee"/>
<circle cx="300" cy="300" r="200" fill="#ffffff"/>
<path style="fill:#0088ee" d="m 300.25195,151.39258 c -6.05203,0.0342 -19.21366,2.47255 -21.68487,5.56153 -13.46867,-5.45075 -24.1545,2.46406 -22.22177,12.5544 0.97306,-2.55115 1.36519,-3.87721 3.71661,-5.88255 0.23115,3.35395 9.41753,9.76343 14.02304,10.1243 0,0 6.43501,5.60129 3.51074,18.84544 -0.73165,3.31368 -2.68467,8.66116 -4.07812,12.31641 -20.02001,-4.17844 -21.15353,-17.53434 -32.02344,-26.23047 -14.69713,-11.75795 -41.32682,15.58937 -56.40039,36.74609 -4.15287,5.82882 -6.28175,12.78573 1.42383,6.26563 -9.3447,31.19895 -70.90451,123.02375 -70.23828,134.95508 0.20978,3.7571 3.88938,0.26049 6.38672,-2.64453 0.11747,4.34063 -5.0854,8.45741 -3.23243,10.25976 3.85509,3.7498 12.82032,-10.11328 12.82032,-10.11328 0.19373,2.25808 -2.54674,6.66405 -1.07032,6.86133 4.49515,0.60065 9.75782,-11.8457 9.75782,-11.8457 0.69195,2.33984 -1.40364,5.04906 0,6.26757 5.05554,4.38874 13.81445,-16.23828 13.81445,-16.23828 0.21652,3.75276 -0.82163,6.30505 1.7207,7.91797 5.61296,3.56102 12.94922,-14.04101 12.94922,-14.04101 0.20709,1.6568 -0.0456,4.49171 1.56641,4.69921 6.94777,0.8943 11.96484,-13.38867 11.96484,-13.38867 0.72873,1.63964 1.46635,2.1974 3.13281,2.2793 10.00935,0.49181 15.38282,-24.07031 15.38282,-24.07031 0.65079,1.73542 2.89717,4.53715 4.84179,4.70117 8.46225,0.7138 15.66797,-23.07422 15.66797,-23.07422 22.09283,4.7562 22.45801,-5.72477 38.06446,11.61719 26.19613,57.76692 -36.08022,121.83662 -18.66407,118.54101 12.51812,-2.36877 14.66379,-6.06545 18.95313,-13.72851 1.57141,10.87677 -15.20261,30.76138 -3.83985,28.63672 10.96752,-2.05076 16.66948,-9.51071 20.73438,-17.22852 3.77774,12.28676 -11.33268,30.95534 -0.0332,27.66211 6.41927,-1.8709 13.039,-8.44243 15.73632,-17.42187 0.24799,15.77566 0.66122,23.48242 7.06641,23.48242 6.40519,0 6.81842,-7.70676 7.06641,-23.48242 2.69732,8.97944 9.31705,15.55097 15.73632,17.42187 11.29948,3.29323 -3.81094,-15.37535 -0.0332,-27.66211 4.0649,7.71781 9.76686,15.17776 20.73438,17.22852 11.36276,2.12466 -5.41126,-17.75995 -3.83985,-28.63672 4.28934,7.66306 6.43501,11.35974 18.95313,13.72851 17.41615,3.29561 -44.8602,-60.77409 -18.66407,-118.54101 15.60645,-17.34196 15.97163,-6.86099 38.06446,-11.61719 0,0 7.20572,23.78802 15.66797,23.07422 1.94462,-0.16402 4.191,-2.96575 4.84179,-4.70117 0,0 5.37347,24.56212 15.38282,24.07031 1.66646,-0.0819 2.40408,-0.63966 3.13281,-2.2793 0,0 5.01707,14.28297 11.96484,13.38867 1.61202,-0.2075 1.35932,-3.04241 1.56641,-4.69921 0,0 7.33626,17.60203 12.94922,14.04101 2.54233,-1.61292 1.50418,-4.16521 1.7207,-7.91797 0,0 8.75891,20.62702 13.81445,16.23828 1.40364,-1.21851 -0.69195,-3.92773 0,-6.26757 0,0 5.26267,12.44635 9.75782,11.8457 1.47642,-0.19728 -1.26405,-4.60325 -1.07032,-6.86133 0,0 8.96523,13.86308 12.82032,10.11328 1.85297,-1.80235 -3.3499,-5.91913 -3.23243,-10.25976 2.49734,2.90502 6.17694,6.40163 6.38672,2.64453 0.66623,-11.93133 -60.89358,-103.75613 -70.23828,-134.95508 7.70558,6.5201 5.5767,-0.43681 1.42383,-6.26563 -15.07357,-21.15672 -41.70326,-48.50404 -56.40039,-36.74609 -9.92718,7.94193 -11.72668,19.77334 -27.21289,24.94922 -0.486,-9.9899 0.96745,-13.83808 1.42578,-21.74609 0.63986,-11.04024 -4.65298,-22.24589 -19.375,-27.61915 -5.52077,-2.01498 -9.46058,-2.89358 -13.0918,-2.87304 z"/>
<use id="shine" xlink:href="#shield" fill="url(#rg)" stroke="#000" stroke-width="3"/>
</svg>
