<?xml version="1.0" standalone="no"?><!-- Generator: Gravit.io --><svg xmlns="http://www.w3.org/2000/svg" xmlns:xlink="http://www.w3.org/1999/xlink" style="isolation:isolate" viewBox="1203 562 596 655" width="596" height="655"><defs><clipPath id="_clipPath_miMxgMxojKCns8TO2t7sZXgJvMtspr6m"><rect x="1203" y="562" width="596" height="655"/></clipPath></defs><g clip-path="url(#_clipPath_miMxgMxojKCns8TO2t7sZXgJvMtspr6m)"><g><path d=" M 1203 562 L 1203 819 C 1203 1105 1501 1217 1501 1217 C 1501 1217 1799 1105 1799 819 L 1799 562 L 1203 562 Z " fill="rgb(127,157,181)"/><g><path d=" M 1371.775 675.241 L 1499.933 636 L 1630.387 675.241 C 1643.418 811.47 1596.346 892.082 1499.933 927.024 C 1397.98 885.471 1359.176 798.743 1371.775 675.241 Z " fill-rule="evenodd" fill="rgb(163,176,187)"/><path d=" M 1589 932.001 Q 1613.682 948.592 1656 947.001 Q 1737.684 930.774 1725.683 909.001 C 1713.682 887.228 1691.773 825.274 1630 800.001 Q 1568.227 774.728 1656 784.001 Q 1797.5 891.546 1734 957.001 Q 1670.5 1022.455 1501 919.001 Q 1564.318 915.41 1589 932.001 Z " fill="rgb(207,226,240)" vector-effect="non-scaling-stroke" stroke-width="1" stroke="rgb(195,207,217)" stroke-linejoin="miter" stroke-linecap="square" stroke-miterlimit="3"/><path d=" M 1413 932.001 Q 1388.318 948.592 1346 947.001 Q 1264.316 930.773 1276.317 909.001 C 1288.318 887.228 1310.227 825.273 1372 800.001 Q 1433.773 774.728 1346 784.001 Q 1204.5 891.546 1268 957.001 Q 1331.5 1022.455 1501 919.001 Q 1437.682 915.41 1413 932.001 Z " fill="rgb(207,226,240)" vector-effect="non-scaling-stroke" stroke-width="1" stroke="rgb(195,207,217)" stroke-linejoin="miter" stroke-linecap="square" stroke-miterlimit="3"/><path d=" M 1500.996 735.33 L 1566.802 740.118 L 1601.811 752.241 L 1589.655 766.026 L 1536.014 775.024 L 1465.986 775.024 L 1412.345 766.026 L 1400.189 752.241 L 1435.198 740.118 L 1501.004 735.33 L 1500.996 735.33 Z " fill-rule="evenodd" fill="rgb(255,255,255)"/><path d=" M 1501 827.551 C 1520.433 794.183 1559.301 794.183 1578.734 810.865 C 1598.167 827.554 1598.167 860.918 1578.734 894.285 C 1565.128 919.312 1530.151 944.338 1501 961.024 C 1471.849 944.334 1436.865 919.312 1423.266 894.285 C 1403.833 860.918 1403.833 827.551 1423.266 810.865 C 1442.699 794.183 1481.567 794.183 1501 827.551 Z " fill-rule="evenodd" fill="rgb(163,176,187)"/><path d=" M 1520.847 836.968 L 1516.059 865.36 L 1503.936 880.466 L 1490.151 875.221 L 1481.153 852.077 L 1481.153 821.863 L 1490.151 798.719 L 1503.936 793.474 L 1516.059 808.579 L 1520.847 836.971 L 1520.847 836.968 Z " fill-rule="evenodd" fill="rgb(255,255,255)"/></g></g></g></svg>