<svg xmlns="http://www.w3.org/2000/svg" width="600" height="660" xmlns:xlink="http://www.w3.org/1999/xlink">
<style id="style_css_sheet" type="text/css">
.lion {
  fill:#ffcc00;stroke:#cc0000;stroke-width:1;
}
.detail {
  fill:#cc0000;stroke:none;
}
.langued {
  fill:#ff5555;
}
.armed {
  fill:#ffcc00;
}
</style>
<defs>
  <radialGradient id="rg" gradientUnits="userSpaceOnUse" cx="220" cy="220" r="405">
    <stop style="stop-color:#fff;stop-opacity:.3" offset="0" />
    <stop style="stop-color:#fff;stop-opacity:.2" offset="0.2" />
    <stop style="stop-color:#666;stop-opacity:.1" offset="0.6" />
    <stop style="stop-color:#000;stop-opacity:.13" offset="1" />
  </radialGradient>
  <path id="shield" d="m 2 2 v 257 c 0 286 298 398 298 398 c 0 0 298 -112 298 -398 V 2 Z" />
</defs>
<use fill="#cc0000" xlink:href="#shield" />
<g class="lion" id="lion">
  <g id="lower-limb">
    <path d="m 207.5 458 c 0 0 -0.2 2.4 -1 3.5 c -1.3 2.2 -3.5 4.9 -6 5.7 c -3.1 1.6 -6 0.6 -8.9 0.3 c -2.2 -1.5 -5.4 -4.9 -5.4 -4.9 c 0 0 -3.6 5.6 -6.8 7 c -3.1 1.4 -7.3 1.5 -10.8 0.5 c -3.9 -1 -7.2 -4.3 -8.6 -7.5 c -0.9 -2.5 0.1 -6.5 0.1 -6.5 c 0 0 -4.2 1.3 -6.1 1 c -3 0.3 -5.9 -0.6 -7.4 -2.6 c -2.7 -3.3 -3.2 -6.3 -2.3 -10.4 c 0.4 -1.7 3.5 -4.4 3.5 -4.4 c 0 0 -2 -2.7 -2.4 -3.8 c -0.8 -2.5 0.6 -5.4 0.6 -5.4 c 0 -2.3 3.3 -4.8 6.4 -4.6 c 7.7 -0.3 11.3 5 19.3 7 c 15.8 2.5 30.9 -3.5 42.8 -13.4 c 3.9 -3.7 6.9 -8.1 9.3 -13.3 c 2.2 -3.8 2.9 -10.3 3 -15.1 c -1 -7.9 -5.6 -14.3 -7.6 -22.9 c -0.7 -3.7 -1.4 -13.3 -1.4 -13.3 c 0 0 -5.1 3 -6 5.3 c -0.9 2.3 -0.3 7.1 -1.1 10 c -1 2.3 -2.9 3.7 -5.3 4.1 c -2.5 1.5 -5.5 0 -7.9 1.6 c -1.9 0.8 -4.2 4.8 -4.2 4.8 c 0 0 -0.7 -4.3 0.1 -5.9 c 1.7 -4.1 6.7 -5.9 7.7 -9.4 c 0.3 -3.5 -1.9 -4.9 -2.7 -8 c -0.9 -2.4 -0.6 -4.2 -0.5 -6 c 1.1 -4.1 7.7 -8.6 7.7 -8.6 c 0 0 -1.3 -0.8 -2.3 -1.5 c -1.1 -0.7 -4.8 0 -4.8 0 c 8.5 -11.6 12.4 -13.9 26.3 -10.6 c 0 0 0.5 -4.1 1.5 -7.6 c 0.9 -2.9 1.9 -6.3 4.5 -8.4 c 1.9 -0.9 5.1 -3 5.1 -3 c 0 0 2.2 -3.3 3 -5 c 1.6 -3.9 4.3 -6.6 8.1 -8 c 3.9 -2.5 7.4 -2.7 12.2 -2.2 c 15.1 2.5 29.7 5.3 45.2 0 l 8.1 79.6 c -10.6 -2.4 -22.5 -2.1 -32.2 -5 c -3.6 -0.9 -10.1 -5.8 -13.4 -8.8 c 0 0 0.4 7.9 -1.5 13.7 c -2.4 4.5 -6.5 10 -4.9 15.5 c 1 2.4 3.7 4.6 6.4 7.3 c 2.1 2.7 3.5 6.4 3.6 9.9 c 0.3 2.4 -0.1 6 -2 6.9 c -7.7 4.4 -15.8 7.8 -18.2 13.4 c -2.4 9.9 -1.5 17.7 -10.9 22.6 c 1.1 -4.7 0.2 -7.8 -1.8 -11.5 c -1 8.7 -3.2 12.1 -9.1 17.3 c 0.1 -5.3 -0.1 -9.5 -1.3 -13.8 c -2.3 9.3 -4.8 14.9 -13.6 18.1 c 2.4 -4.5 2.9 -8.6 1 -13.6 c -2.7 3.9 -2.2 9.3 -7.1 9.9 Z" />
    <path class="detail" d="m 151.5 438.3 c 1.8 -0.3 3.5 0.4 5.9 0.2 c 1.7 0.7 3.3 1.6 5.3 1.1 c 2.3 0.3 6.6 -0.9 6.6 -0.9 c -1.4 2.1 -5.7 2.3 -6.8 2.1 c -1.8 0.4 -3.5 -0.4 -5.8 -0.7 c -1.8 -0.7 -3.5 -1.5 -5.3 -1.2 c -0.6 0 -1.9 0.5 -2.5 0.3 c -0.5 0.6 -1.1 0.5 -1.1 0.5 l -2.2 -2.6 c 0 0 1.5 2 2.9 1 c 0.6 -0.1 1.9 0.1 3 0.2 Z m 23.5 7.6 c 0 0 -0.7 1.1 -1.4 1.6 c -1.2 0.4 -1.8 1.1 -3.2 2 c -1.2 0.5 -3.6 0.2 -4.8 0.6 c -1.2 0.5 -2.5 1.5 -3.8 1.9 c 0 0.6 -0.9 1.8 -1 2.9 c -0.7 1.2 -0.7 1.7 -0.7 1.7 l -4.8 0.7 c 0 0 3.1 -1.5 3.8 -2.6 c 0.1 -0.6 1.4 -1.6 2.2 -3.2 c 1.1 -0.5 2.5 -1.6 3.7 -2 c 2 -1 4.4 -0.7 5.6 -1.2 c 0.6 -0.5 1.9 -1 2.5 -1.5 Z m 20 2.4 c -4.2 0 -6.9 2.7 -8.2 4.8 c -1.7 2.9 -2 5.7 -0.1 9.7 l -1.3 1 c -1.9 -3.3 -1.4 -8 0.2 -10.7 c 4.3 -6.7 8.8 -5 9.4 -4.8 Z m 11.3 5.3 c 1.1 0.8 0.9 2 1.5 2.6 c -0.2 1.2 0.3 1.9 0.3 1.9 l -1.1 0.4 c 0 0 0.1 -1.1 -0.5 -1.8 c 0.1 -1.2 -0.3 -2.5 -0.8 -3.1 c -0.4 -1.2 -3.8 -3.4 -3.8 -3.4 c 1.7 0.2 4.5 2.8 4.4 3.4 Z" />
    <path class="detail" d="m 217.5 347.7 c 0 0 -2 1.1 -3.3 2 c -1.3 1.1 -2.6 2.1 -3.9 2.6 c -0.7 1.6 -2.2 3.9 -2.4 5.6 c -0.7 1.2 -0.3 2.9 -0.5 4.1 c 0.4 1.9 0.3 3.1 0.1 4.9 c -0.2 1.6 -1 3.4 -2.9 4.4 c -0.7 0.5 -1.9 0.9 -2.5 0.9 c -1.2 -0.2 -2.5 -0.3 -2.5 0.3 c -1.9 1 -3 0.8 -3.7 2 c -0.8 0.5 -0.9 1.7 -1.6 3.3 c -0.2 1.2 -0.2 1.8 -0.2 1.8 l -1.4 0.4 c 0 0 0.2 -1.2 1 -2.3 c 0.2 -1.7 1 -3.4 1.6 -4 c 1.3 -1.1 2.6 -1.5 3.9 -2.4 c 0.6 0 1.8 0.1 2.4 0.2 c 1.1 0.1 1.7 0.2 2.4 -0.9 c 1.3 -1 2.1 -2.2 3 -4.4 c 0.1 -1.3 -0.4 -2.5 -0.2 -4.3 c -0.4 -1.2 -0.2 -2.9 -0.1 -4.1 c 0.8 -1.6 1.7 -4 3.1 -6.2 c 1.4 -1 2.5 -1.5 3.9 -2.5 Z" />
    <g class="armed">
      <path d="m 149.2 427.4 c 1.8 -0.4 3.2 2.8 2.9 5.1 c -0.2 2.3 -3.2 6.7 -4.8 5.4 c -4.6 -2.9 -10 -1.7 -14.7 0.1 c 2.8 -7.5 9.2 -10.9 16.6 -10.6 Z" />
      <path d="m 145.3 444.2 c 2.1 -1 3.6 1.6 3.9 4 c 0.9 2.5 -0.9 7.1 -3.2 6.2 c -5.1 -1.2 -10.1 1.2 -14.2 3.8 c 1 -7.7 6.3 -12.4 13.5 -14 Z" />
      <path d="m 161.4 459.7 c 0.9 -1.6 4.4 -1.2 6 0.7 c 2.2 1.6 4 5.9 1.6 6.9 c -5.1 2.4 -6.9 7.5 -8.6 12 c -4 -6.4 -3.2 -13.5 1 -19.6 Z" />
      <path d="m 202.9 462.3 c 0.2 -1.8 -3.3 -2.3 -5.7 -2 c -1.9 1.1 -5.9 4.1 -4.3 6 c 3.7 4.1 3.6 9.5 3.1 14.2 c 6.5 -4.1 8.5 -11 6.9 -18.2 Z" />
    </g>
  </g>
  <g id="right-arm">
    <path d="m 153.9 91.3 c -6.8 -1.2 -13.8 5.2 -14.9 12.7 c -3.4 -3.7 -7.6 -4.6 -11.2 -3.5 c -7.3 1.8 -12.8 11.5 -6 18.5 c 1.8 1.9 7.2 1.1 8 3.6 c 0 0 0.9 2.6 1.5 3.9 c 0.8 0.9 1.8 2.4 1.8 2.4 c 0 0 -6.2 0.1 -7.7 1.5 c -9.9 8.5 1.9 24.5 13.2 18.9 c 2 -1 4 -1.9 6.2 -3.2 c 2.5 -2.1 7.5 -3.1 8.6 -1.9 c 0.6 0.5 1.2 1.2 1.8 1.8 c -5 3.6 -4.3 9.5 -10.5 13.3 c 9.7 1.3 11.9 0.9 20.1 -3 c 0.1 0.1 0.2 0.2 0.4 0.4 c -1.2 5.4 -2.7 10.2 -6.5 13.4 c 8.1 2.1 13.6 -0.3 19.6 -3.2 c 1.7 3.2 2.6 6.6 4.8 9.2 c 2.1 2.1 4.5 4 7.8 5.1 c -0.7 -5.2 -0.3 -8.4 4 -11.9 c 0.3 12.2 3.3 18.8 13.7 25.5 c -3.3 -7.4 1.3 -6.6 3.4 -16.9 c 1.5 10.3 3.4 19.3 14.6 23 c -1.4 -4.4 -2.4 -8.4 0 -12.6 c 3 9.5 6.8 16.7 17.1 19.6 c -1.9 -5 -2.9 -9 0.4 -13.8 c 3.1 9.2 7.6 15.3 17.5 17.5 c -4.8 -6.3 0.2 -8.3 -2.1 -15.7 c 0 0 15.3 14.9 21.7 17.4 c 8.9 3.7 23 11.1 23 11.1 l 2.2 -53.2 c -23.6 -7.4 -46.9 -15.4 -70.5 -22.1 c -8.5 -2.4 -17.6 -2.8 -26 -4.5 c -6.4 -1.2 -14.9 -4.1 -21.8 -5.7 c -4 -1.2 -11.2 -7.9 -13.1 -10 c -6.3 -8.5 -11.9 -17.8 -11.9 -17.8 c -1.6 -2.3 -1.4 -7 -1.6 -10.1 c -0.1 -2.4 0.1 -5 -1.9 -6.8 c -1.8 -1.6 -3.7 -2.5 -5.7 -2.9 Z" />
    <path class="detail" d="m 132 128.6 c 0 0 4.1 0 5.6 -0.2 l 9 -1.3 c 0 0 -6.1 2.3 -9.1 2.6 c -1.6 0.1 -5.7 -0.1 -5.7 -0.1 Z m 6.4 -25.5 c 0 0 2.4 0.7 4.4 3.8 c 2.4 3.4 4.3 6.1 8.3 8.1 c 1.9 0.8 6.5 1.6 6.5 1.6 c -4.4 0.3 -7.5 -0.8 -10.4 -2.5 c -2.7 -1.6 -3.8 -4.9 -5.6 -6.8 c -2.5 -2.9 -3.2 -3.1 -3.2 -3.1 Z" />
    <g class="armed">
      <path d="m 155.7 94.4 c 1.2 1.8 -1 4.2 -3.3 4.9 c -2.3 1.1 -7.2 0.5 -6.9 -1.7 c 0.4 -5.3 -3.1 -9.7 -6.7 -13.1 c 7.4 -0.7 13.6 3.4 16.9 9.9 Z" />
      <path d="m 126.3 102.7 c 2.3 0.2 2.7 3.1 1.9 5.6 c -0.6 2.3 -3.9 5.8 -5.6 4.4 c -4 -3.5 -9.5 -3.7 -14.4 -2.7 c 4.1 -6.4 10.9 -8.7 18.1 -7.3 Z" />
      <path d="m 125.8 133.5 c 1.9 -0.8 3.6 1.7 4.1 4.2 c 0.5 2.4 -1 7.1 -3.2 6.3 c -5.1 -1.4 -10 1.1 -14.1 4.1 c 0.8 -7.5 6 -12.8 13.2 -14.6 Z" />
    </g>
  </g>
  <path id="groin" d="m 296.7 303.8 l 10.6 18.6 c 0 0 -3.5 10.8 -8.8 13.7 c -0.2 -7.8 -6.2 -16.9 -9.5 -24.2 c -1.2 -3.3 4.9 -6.3 7.7 -8.1 Z" />
  <g id="body">
    <path d="m 428.7 436.5 c -3.5 -0.7 -5.8 -1.8 -8.9 -1.2 c -5 -1.6 -10.3 -2.8 -14.4 -6.1 c -8.6 -5.4 -14 -14.3 -18.3 -22.5 c -6.2 -10.9 -9.2 -25.5 -14.2 -36.2 c -3.7 -8 -7.9 -14.4 -11.2 -21.7 c -2.8 -4.3 -8.3 -9.5 -8.3 -9.5 c 0 0 3.9 10.4 4.4 16.5 c 0.9 7.6 1.4 13.7 1.1 20.9 c 0.1 7.8 -1.8 17.1 -0.9 24.5 c 1.9 8.2 5.1 16.1 9.4 24.3 c 3.4 5 7.8 9.5 12.3 13.5 c 3.5 3.8 9.2 8.5 9.2 8.5 c 1.9 2.3 5 2.3 7.1 4 c 7.4 4.5 9.8 10.5 8.6 16.3 c -2.8 -4.2 -6.5 -3.8 -11.1 -2.3 c 9.7 6.2 12.7 11.8 10.8 24 c -2.4 -8.4 -10.7 -6.6 -16 -10 c 5.1 10.7 13.1 12.9 14 19.8 c 1.8 2.8 2.2 6.6 -1.3 14.8 c -1.2 -3.2 -1.9 -5.1 -3.2 -7.3 c -3.3 -2.4 -7.4 -2.2 -11.2 -7.8 c 0 0 -0.9 4.2 0.4 6.8 c 1.9 2.9 2.5 2.9 4.8 5.9 c 1.8 2.8 3.6 6.2 4.2 9.3 c 0.9 6.9 -2.9 16.9 -2.9 16.9 c 0 0 -2.3 -4 -3.8 -5.5 c -2.1 -1.8 -5.8 -0.7 -8.6 -2.4 c -2.1 -1.1 -4.9 -5.4 -4.9 -5.4 c 0 0 0 3.1 0.2 5 c -0.2 1.1 -3.2 4.1 -3.2 4.1 c 0 0 6.5 0.1 9.3 4.4 c 3 2.9 3.3 7.3 1.4 10.5 c -2.8 4.9 -8.1 6.8 -14.6 3.5 c -2.4 0.2 -5.7 -1.6 -5.7 -1.6 c 0 0 0.6 3 -0.4 4.7 c -0.3 1.8 -1.3 3.3 -3 5.4 c -2.4 3.2 -6.7 3.4 -10.2 3.3 c -3.6 -0.8 -7 -1.5 -8.7 -5.4 c -1 -0.8 -2.6 -4.8 -2.6 -4.8 c 0 0 -3.9 4.7 -6.4 4.8 c -4.9 0.1 -9.3 -1.9 -11.6 -4.9 c -1.9 -2.9 -2.5 -6 -2.5 -9 c -0.1 -2.5 1.5 -4.4 1.9 -6.2 c 0 0 -2.1 -1 -3.8 -1.5 c -1.7 -1 -2.5 -3 -3.7 -5.5 c -0.7 -2.6 -0.6 -5.6 0.7 -9 c 2.5 -3.7 5.2 -4.9 9.3 -4 c 2.9 -0.1 6.6 3 8.4 5.3 c 3.3 2.5 7.5 2.2 11.4 1.1 c 3.4 0.7 6.1 -3.5 9.2 -6.5 c 5.6 -9.7 6.6 -23.4 6.3 -33.2 c -0.1 -11.4 0.3 -24.7 0.3 -24.7 c 0 0 -9.9 -7.5 -14.5 -11.5 c -6.4 -7.3 -19.5 -22.8 -19.5 -22.8 c 3 5.5 4.3 8.8 4.2 11.9 c 0.6 6.1 -3.2 9.5 -4.9 14.6 c -0.5 2.3 -0.2 3.6 0.2 4.9 c -4.4 -2.2 -4 -3.9 -4.7 -6.4 c -1.1 -3.9 0.4 -7.8 -2.1 -10.7 c -0.4 5.3 -2.7 7.9 -7.1 11.1 c 0 0 1.7 -5 -0.8 -8 c -2.3 -2.8 -6.3 -4.3 -7.9 -7.7 c -3.1 -3.1 -4.5 -7.6 -1.1 -12.8 c 0 0 -4.8 -2.9 -5.8 -6.6 c -1.6 -4.1 -0.2 -8 1.1 -11.4 c 2.7 -4.2 8.3 -10.3 8.3 -10.3 c 0 0 -11.1 -16.2 -14.4 -27.3 c -1.6 -6.3 -2.1 -13 -1.3 -19.5 c 1.1 -5.3 2.7 -10.4 4.9 -14.7 c 3.3 -4.2 10.1 -10.7 10.1 -10.7 c 0 0 -5 -13.6 -8.9 -18.7 c -3.2 -4.9 -6.1 -8.5 -10.2 -11.8 c -4.6 -3.5 -10.4 -5.2 -15.3 -8 c -6.5 -3.8 -10.7 -6.5 -15.4 -12.3 c -3.7 -3.3 -4.5 -5 -10.3 -12.5 c -4.4 -5.8 -11.6 -36.8 -3.1 -48.8 c 3.9 -5.5 5.8 -16 9 -22.6 c 5.5 -14.9 16.5 -35.9 16.5 -35.9 l 28.5 0.2 l 11.3 18 c 2.1 4.2 8.4 35.4 14.9 64.7 c 3.2 14 6.3 27.9 9.7 37.7 c 4.6 13 11.5 26 18.9 37.2 c 15.8 13.6 25.9 29.6 33.1 49.8 c 2.4 6 4.9 11.3 7.9 17.9 c 2.6 7.3 4.9 16.2 8.4 23 c 4.1 6.3 7.8 14.3 14.4 17.5 c 0 0 6.7 3.1 11.5 3.7 c 4 0.8 8.8 0.5 11.9 -2.4 c 5.9 -4.9 7.1 -8.3 7.6 -13 c -1 -9.9 -10.3 -17.9 -18.6 -26.9 c -3.5 -3.6 -7.8 -8.9 -10.7 -12.4 c -20.5 -26.6 -42.1 -53.5 -57.6 -83.4 c -4.8 -9.4 -7.5 -19.1 -8 -28.8 c -0.9 -21.5 8.8 -36.6 17 -55.3 c 4 -10.9 0.3 -22 -12.3 -22.3 c 5.1 -6.7 12.8 -9 19.2 -7.5 c 5.7 1.2 9.2 4.3 11.5 8.3 c 4.8 8.7 1.4 21.8 -2.5 32.2 c 3.9 -1.2 7.9 -3.2 10.2 -5.6 c 5.8 -7.3 3.7 -17.5 5.1 -27.3 c 1.6 -11 8.4 -19.7 19.2 -23 c 5.4 -1.7 14.9 -1.4 20.1 2.2 c 3.3 2.1 4.5 5.1 5.4 9.1 c 0.6 6 -1.9 12 -1.3 18 c 1.1 3.4 3.5 6.8 3.5 6.8 c -0.1 0.3 -9.4 1.5 -14.8 -4.5 c -2.4 -3 -4.5 -10 -4.5 -10 c -1.1 2.1 -1.9 3.3 -1.1 5.4 c -0.4 10.3 4.5 18.3 -2.8 30.5 c -3.9 6.8 -12.5 9.9 -23.1 12.3 c -5.2 1 -6.3 4 -6.5 5.1 c 17.6 -4.1 33 6.9 33.9 19.7 c 0.6 11.6 -9.1 20.5 -20.6 21 c 8.4 -11.6 3.5 -22.9 -10 -24.7 c -8.8 -1.1 -16.1 1.8 -20.2 6.3 c -4.7 5.7 -6.1 15.2 -4.4 24.5 c 1.9 8.2 10.4 22.8 10.4 22.8 c 2.1 -10.5 16.4 -3.2 12.1 -20.5 c 12.2 11.1 6.6 20.7 4.3 31.8 c 10.3 -0.3 13.8 -5.6 14 -15.3 c 10.9 14.3 2.7 21.7 0.7 34.6 c 8.2 -1.9 10.8 -5 13.6 -12.8 c 7.5 9.9 1.6 18.4 -4.7 28 c 6.1 -3 15.7 0.2 20 8.4 c -6.8 -2 -9.3 -1.4 -11.5 0 c -1.7 2.7 -3.4 4.7 -2.1 7.5 c 3.3 7.3 8.5 11.3 13 16 c 8.2 7.1 15.3 13.4 17 28.9 c 0.7 8 -1.4 15.4 -9.8 23.3 c 9.8 -0.3 13.6 4.7 15.2 8.6 c -0.1 3 -2 6.3 -2.6 9.2 c -0.2 1.1 2.4 5.9 2.4 5.9 c -4 -0.9 -7.2 -2.7 -7.4 -8.2 c -0.6 0.5 -1.5 1.5 -1.6 2.1 c 1.6 4.5 3.3 7.9 3.5 12.2 c -0.1 3.6 -0.8 6.5 -4.9 9.3 c -3.5 2.3 -7.9 0.2 -13.4 0.2 c -2.6 1.2 -4.3 3.3 -5.9 5.5 c -0.9 -4.6 0.6 -6.5 3 -8.5 c 2.5 -3.2 4.7 -2.7 7 -5.2 c 2.3 -2 2.7 -4.3 -0.2 -9.8 c -2.6 6.2 -8.3 6.8 -12.1 5.4 c -3.8 -2 -6.1 -5.5 -6.2 -11 c 2.5 3 5.2 4.1 7.7 3.5 c 2.1 -1.5 4.4 -3.3 2.2 -7.5 c -0.9 -1.4 -3 -3 -4 -3.8 Z" />
    <g class="detail">
      <path d="m 413.4 167.2 c 3.6 0.4 8 2.6 10.1 7.1 c 0.5 0.4 0.4 0.7 0.3 1.1 c 0 0.3 0 0.6 0.4 0.7 l -1.2 0.1 c 0.1 -0.1 0.2 -0.4 0.2 -0.7 c 0 -0.2 -0.5 -0.7 -0.5 -0.7 c -3 -5.9 -8.1 -7.4 -13.7 -6.7 c -5.6 0.7 -10 4.2 -12.1 8.6 c -0.2 1 -0.4 2 -0.7 3.1 c -0.6 0 -0.1 -2.4 -0.5 -3.5 c 2.9 -4.7 7.2 -8.2 12.9 -9.1 c 1.8 -0.2 3 -0.2 4.8 0 Z m 15.5 -13.7 c 2.4 0.6 3.9 2.1 6.2 5.2 c 1.8 2.9 2.9 6.7 1.5 10.4 c -0.6 -3.1 1.1 -5.1 -1.8 -9 c -1.8 -2.9 -5.5 -5.8 -7.7 -6.3 Z m -9.3 1.2 c 0 0 1.2 0.1 1.8 0.1 c 3.6 0.4 6.4 1.4 8.1 4.7 c 1.4 1.8 2.1 4.8 2.2 7.4 c 0.6 2.8 0.1 7.3 1.6 9.4 l 2.6 8.2 c -2.5 -2.9 -3.6 -6.8 -4.6 -10.2 c -0.2 -1.9 0.4 -4.6 -0.3 -7.3 c 0 -2.6 -0.3 -4.5 -1.8 -6 c -2.3 -3.2 -5 -4.9 -8.6 -5.3 c -3.6 -0.3 -7.4 0.3 -10.5 1.2 l -0.4 -0.8 c 2.6 -0.6 5.7 -1.2 8.1 -1.4 c 0.6 0 1.2 0.1 1.8 0 Z m -5.8 4.7 c 3.1 -0.1 6.5 0.7 9.2 2.6 c 1 0.8 1.8 2.7 2.1 4 l 1.1 3.5 c -0.8 -1.6 -1.7 -3.2 -2.1 -4.3 c -0.4 -1 -0.9 -1.8 -1.9 -2.4 c -2.7 -2.2 -7.4 -2.3 -11.1 -1.5 c -4.5 0.7 -8.7 3.7 -11.8 6.8 l 0.5 -2.2 c 3.1 -3.2 7.1 -5.3 11.6 -6.1 c 1.1 -0.2 1.7 -0.3 2.4 -0.4 Z m 0.7 8.4 l 1.1 0.3 c 0 0 -2.2 2.2 -3.5 5 c -1.7 2.6 -2.4 5.9 -2.9 8.3 c -1.3 3.3 -0.9 6.9 0.2 10.7 c 1.1 3.7 2 7.6 0.8 11.1 c -0.5 2.5 -1.4 3.8 -2.9 5 c -1.4 1.1 -1.6 2.1 -3.1 3.5 c -3.5 1.9 -10 4 -14.6 6.2 c -5.2 2 -10 4.1 -12.8 6 c -2.1 1.4 -3.2 3.9 -4.8 5.7 c -1.7 1.9 -2 3.6 -2 3.6 c -0.1 -2 0.9 -4.3 1.2 -5.4 c 0.3 -1.7 1.9 -3.1 3.9 -4.7 c 2.9 -2 8.8 -4.1 14.7 -6 c 4.5 -2.2 9.9 -4.3 12 -6.2 c 2.1 -1.3 3.1 -2.7 4.5 -3.8 c 0.8 -1 1.1 -2 2.1 -4.1 c 1.3 -3.3 1.2 -5.9 0.1 -9.6 c -1 -3.7 -2.4 -8.5 -1 -12.1 c 0.5 -2.6 2 -7.2 3.8 -9.8 c 1.7 -2.7 3.2 -3.7 3.2 -3.7 Z m -9.9 0.9 l 2.5 -0.3 c 0 0 -3 2.3 -3.4 4.5 c -1.7 2.1 -2.6 4 -2.4 6 c -1.2 2.9 -0.4 7.3 0.1 11 c 0.5 3.8 0.9 7.7 0.1 11.1 c -0.9 4.7 -4.4 7 -7.4 9.9 c -3.4 1.9 -7.4 3.3 -11.3 4.7 c -4.6 1.3 -8.4 2.7 -11.2 4.6 c -2.9 2 -4.8 5.7 -6.7 8.7 c -1 1.6 -0.7 3 -0.9 4 c -0.7 3.9 -1.4 -1.7 0.3 -4.3 c 1.3 -3.2 3 -8 6.4 -10.2 c 2.8 -1.9 7.7 -2.7 11.1 -4.2 c 4.5 -1.3 9 -2.2 11.8 -3.9 c 2.9 -2.9 5.2 -5.2 6.7 -9.5 c 0.7 -3.1 0.3 -6.9 -0.7 -10.7 c 0.1 -3.8 -1.1 -9.2 0.2 -12.6 c 0.5 -2.1 1.3 -3 2.4 -5.2 c 0.9 -2.2 2.4 -3.6 2.4 -3.6 Z m 15.8 2.3 l 0.6 0.5 c 0 0 -0.9 1.1 -1.3 3.4 c -1.7 2.1 -2.9 4.8 -2.6 6.6 c -1.3 3.2 -0.2 6.6 -0.3 10 c 1.1 3.5 2.2 6.9 1.5 10.3 c -0.7 3.3 -1.4 7.3 -4.4 9.5 c -4.7 4.9 -12.8 6.4 -18.9 9.4 c -4.2 2.6 -10.2 5.1 -13.3 8.9 c -3.8 3.7 -8.3 10.5 -8.3 10.5 c 0.8 -3.7 5.8 -10 7.4 -11.9 c 3.2 -4.1 9.2 -6.3 13.8 -8.7 c 5.6 -3.3 13.6 -4.3 18.1 -8.7 c 2.4 -2.2 3.1 -5.9 3.8 -9.2 c 0.7 -3.2 -0.4 -6.7 -0.9 -10.2 c -0.5 -3.4 -0.9 -7.4 -0.2 -11 c 0.4 -2 2.2 -4.5 3.3 -6.7 c 1.1 -2.2 1.7 -2.7 1.7 -2.7 Z m -55.6 3 c 1.2 -0.1 2.4 0.2 3.6 0.5 c 2.9 0.8 6.6 3 7.8 5.9 c 2 4.5 2 10.7 0.5 15.3 c -4.9 8.6 -10.4 14.8 -13.6 21.2 c -2 4.4 -3 8.9 -4.5 13.4 c -0.2 -5 2.4 -11.6 3.6 -14.1 c 3.1 -6.6 8.4 -11.6 12.6 -20.2 c 2 -4.3 1.7 -10.7 0.1 -15 c -1.9 -2.7 -4.4 -4.8 -7.3 -5.8 c -2.4 -0.6 -5.9 -0.2 -9.1 0.4 c -3.1 0.6 -5.3 1.7 -5.3 1.7 l -0.3 -1 c 0 0 2 -0.9 5.7 -1.4 c 1.3 -0.5 3.2 -0.7 5.1 -0.9 c 0 0 0.6 0.1 1.1 0 Z m 16.2 35.2 l -0.9 1.4 c -4.4 1.1 -8.3 2.3 -10 5.3 c -0.8 0.7 -2.3 1.8 -2.5 3.1 c 0.4 -2.3 1.2 -3.1 2.1 -4 c 2.4 -3.3 6.9 -4.5 11.3 -5.8 Z m 9.9 19.2 l 0.5 0.7 c -6.1 3.4 -11 6.7 -14.7 9.8 c 4.5 -4 9.1 -8.9 14.2 -10.5 Z m 4.1 7 c 3.6 -0.2 8.3 0.7 11 1.9 c 7.9 3.3 12.7 11.6 10.5 19.2 c -0.9 4.6 -5.5 9.4 -12.3 13.4 l -0.5 -0.6 c 7 -4.7 10.7 -8.4 11.7 -13.1 c 2.1 -7.1 -2.9 -14.9 -10.7 -18.1 c -8.2 -3.7 -21.5 -1.7 -32.6 8.3 c 8.7 -9.8 18.5 -10.4 21 -10.9 c 0.6 0 1.2 -0.1 1.9 -0.1 Z" />
      <path d="m 310.5 304 c 0 0 0.3 5.6 -0.3 8.6 c -0.6 2.3 -1.3 4.1 -2.9 6.2 c -0.7 0.9 -1.9 2.1 -3 2.9 c -1.2 0.9 -2.1 1.7 -2.1 1.7 l -0.5 -0.8 c 0 0 0.8 -0.6 1.9 -1.5 c 1.1 -0.9 2.4 -2.1 3 -2.8 c 1 -1.3 1.7 -2.4 2.2 -4 c 0.3 -0.9 0.6 -1.9 0.7 -2.7 c 0.6 -1.5 0.9 -4.8 1 -7.6 Z" />
      <path d="m 306.6 409.9 c 0 0 1.5 1.5 0.7 3.1 c -0.3 1.2 -1.1 2.2 -1.9 3.3 c -0.8 0.4 -3.1 2.9 -3.9 4 l -1.3 3.3 c -0.6 0 -0.6 0 -0.6 -0.6 c -0.5 -0.2 -0.5 -0.2 -0.5 -0.2 c 0 0 0.1 -0.6 0.2 -1.2 c 0.2 -0.6 1.6 -1.5 2.4 -2.5 c 0.8 -1 3.1 -3.6 3.3 -4.1 c 0 0 0.7 -0.5 1.4 -1 c 0.1 -0.6 0.3 -1.2 0.3 -1.8 c 0.9 -0.9 -0.1 -2.3 -0.1 -2.3 Z m -3.7 0.5 c 0 0 -0.7 0.4 -1.3 0.3 c -0.7 0.3 -1.3 0.3 -1.3 0.3 c -1.4 1.4 -2.9 3 -3.2 4.1 c -0.3 1.2 -0.4 1.8 -0.6 2.9 c -0.2 0.6 0.5 3.2 0.5 3.2 l -1.5 -1.5 c 0 0 0.2 -0.6 0.4 -1.8 c 0.2 -1.1 -0.3 -1.8 0.5 -2.3 c 0.5 -2.3 1.5 -4.6 4 -5.1 Z m 7.2 11.7 c 0 0 0.1 3 -0.3 4.8 c 0.2 1.8 1.1 3.2 1.9 4.5 c 0.4 1.4 2.2 1.8 3 3.8 c 1 1.3 1.2 2.6 2.1 4 c -0.1 0.6 -0.3 1.2 -0.3 1.8 c 0 0 -0.2 0.5 -0.2 0.5 c 0 0 -0.1 0.6 -0.6 0.5 l 0.3 -1.2 c 0 0 0 0 0 0 c 0 0 0 0 0 0 c 0.1 -0.6 0.1 -0.6 -0.4 -1.2 c 0.3 -1.2 -1.1 -3.4 -1.5 -4.5 c -1.1 -0.9 -3.2 -2.5 -3.9 -4.5 c -0.5 -0.8 -1.7 -3.4 -1.4 -5.1 c 0.5 -2.4 1.1 -2.2 1.3 -3.4 Z m -4.2 5.7 c 0 0 -0.2 1.2 -0.4 1.8 c 0.4 1.3 0.1 2.4 0.5 3.2 c 0.4 1.2 2.7 2.2 3.6 3.6 c 1.5 1.6 3.1 2.5 3.5 3.3 c 0.7 2.6 -0.2 4.1 0 6 c -0.2 1.2 -1.1 2.2 -2.1 3.8 c -0.2 1.1 -0.4 2.2 -0.4 2.2 l -1 -0.8 c 0 0 0.1 -0.6 0.8 -1.5 c 1 -1.7 1.3 -2.8 2 -3.3 c -0.1 -2.4 0.2 -4.1 -0.1 -5.4 c -0.5 -0.7 -2 -2.3 -3.4 -3.7 c -1 -1.5 -3.2 -2.5 -3.5 -3.8 c -0.5 -3.2 -0.3 -4.3 0.5 -5.4 Z" />
      <path d="m 448.9 444.3 c 0.7 2 1.4 4 1.8 5.3 c 0.9 1.9 2 5.2 1.5 7.6 c 0.1 2.3 -0.3 4.1 -1.8 5.6 c -1.8 2.6 -3.5 2.2 -5.3 2.5 c -1.4 1 -3.8 0.5 -5.8 1.3 c -1.8 0.1 -3.7 0.4 -5.3 2.4 c -0.8 0.5 -1.6 1.5 -1.2 2.8 c -0.7 0.4 -0.9 1 -0.9 1 l -0.6 0 c 0 0 0.2 -0.6 0.5 -1.8 c 0.2 -1.2 1 -2.2 1.7 -2.6 c 1.4 -1 3.6 -2.9 5.3 -2.6 c 2.2 -1.4 3.9 -1 6.5 -1.7 c 1.8 -0.3 3 0 4 -1.5 c 1.6 -2.1 1.9 -3.9 2.3 -5.6 c -0.1 -2.4 -1.5 -4.6 -1.6 -7 c -0.3 -1.9 -1.5 -3.9 -1.7 -5.8 c -1.3 -2.7 -4.6 -6.9 -4.6 -6.9 c 2 1.6 4.3 5 5.2 7 Z" />
      <path d="m 336.5 533.4 c 0 0 -0.1 0.6 -0.7 0.4 c -0.1 0.6 -0.3 1.2 -0.3 1.2 c -1.4 1 -2.5 1.3 -4.5 2 c -2.6 0.7 -5.1 0.8 -6.8 0.4 c -1.3 0.4 -2.5 0.7 -3.3 1.2 c -0.2 0.6 -0.7 0.5 -0.7 0.5 c 0 0 0 0 0 0 c 0 0 0 0 0 0 c 0 0 0 0 0.1 -0.6 c -0.2 1.2 -1.7 -0.3 -0.3 -1.3 c 0.6 0.1 2.6 -0.7 3.9 -1 c 1.9 -0.2 4.1 0.3 5.9 0.6 c 0 0 2.7 -1.2 3.4 -1.6 c 0.7 -0.6 3.3 -1.8 3.3 -1.8 Z m 26 6 c -0.2 1.2 -1.3 3.9 -1.2 5.8 c 1.5 1.5 1.6 3.4 3.2 4.9 l -1.1 2.2 c -1.4 -2.1 -2.1 -4.7 -2.8 -6.7 c -0.2 -1.8 0.8 -3.9 1.9 -6.2 Z m -12 -0.6 c 0 0 -1.3 3.3 -2.9 4.8 c -2 1.4 -6 2.9 -7.4 4.5 c -0.4 1.1 -0.7 2.9 -0.9 4.1 c -0.3 1.1 -0.5 2.2 -0.5 2.2 l -1.2 -0.3 c 0 0 0.3 -1.2 0.5 -2.2 c 0.2 -1.1 0.5 -2.9 1.5 -4 c 1.7 -2.6 6.9 -3.9 8.4 -5.5 Z" />
    </g>
    <g class="armed">
      <path d="m 314.5 518.9 c 2.2 -0.2 3.1 2.7 2.8 5.2 c -0.2 2.5 -2.9 6.6 -4.8 5.2 c -4.5 -2.6 -9.9 -1.8 -14.6 -0.1 c 2.7 -6.9 9.2 -10.5 16.6 -10.3 Z" />
      <path d="m 321.5 546 c 1.5 -1.6 4.1 0.2 5.3 2.4 c 1.4 2.1 1.6 7 -0.6 7.1 c -5.3 0.6 -9.1 4.4 -11.8 8.8 c -2 -7.3 1 -14 7.1 -18.3 Z" />
      <path d="m 344.3 558.3 c -0.4 -2.2 2.5 -3.3 5 -3.2 c 2.4 -0.1 6.8 2.4 5.6 4.2 c -2.3 4.9 -1.1 10.2 1 14.7 c -7.2 -2.2 -11.2 -8.4 -11.6 -15.7 Z" />
      <path d="m 384.9 543.7 c -1.4 -1.7 -4.3 -0.4 -6 1.6 c -1.5 1.8 -2.6 6.6 -0.4 7 c 5.2 1.5 8.3 6 10.4 10.4 c 3 -6.8 1.1 -13.9 -4 -19 Z" />
    </g>
  </g>
  <g id="left-arm">
    <path d="m 244 260.3 c -2.6 6.3 -7.9 6.8 -12 7.5 c 3 -4.2 3 -7.7 0.5 -12.6 c -7.7 12.6 -8.8 13.6 -18.9 17.2 c 4.7 -7 -1.7 -7 -0.1 -14.1 c 0 0 -2.2 0.6 -2.9 2.3 c -2.9 8.8 -8.2 11.3 -17.1 14.3 c 3.1 -4.9 4.3 -8.2 3 -13 c 0 0 -6.5 8.3 -10.4 10 c -3.9 3.1 -11.7 3.6 -11.7 3.6 c 3.3 -4.7 3.4 -8.9 3.5 -14.3 c -5.7 8.3 -10.6 10.8 -20.4 10.1 c 1.9 -1.1 3.3 -2.9 3.5 -4.1 c 0.9 -2.3 -1.6 -4.7 3.6 -11.3 c 0 0 -8.6 0.6 -11.3 2.4 c -2.2 1.3 -3.3 2.5 -5.4 4.1 c -11.4 4.8 -23.8 -11.7 -13.8 -20.1 c 1.6 -1.1 7.7 -1.1 7.7 -1.1 c 0 0 -1.2 -1.9 -1.7 -3 c -0.7 -1.1 -1.7 -3.7 -1.7 -3.7 c -0.6 -2.6 -5.9 -1.8 -7.7 -3.6 c -6.6 -7.3 -1.1 -16.9 6.3 -18.7 c 3.6 -0.9 7.6 0.1 11 3.9 c 1.9 -9.6 12.7 -17.2 20.9 -9.5 c 1.9 1.8 1.9 4.3 1.9 7 c -0.1 3 -1.4 5.7 -1.1 8.2 c 1.9 12.5 30.8 11 39.1 7.8 c 6.5 -2.2 27.8 -16.3 31.3 -23.4" />
    <path class="detail" d="m 293 223 c 0 0 -0.3 3 -0.4 4.8 c 0.1 1.2 0.3 3.4 0.7 4.5 c 0.4 0.5 0.7 1 1.1 1.9 c 0.3 0.5 0.8 1.2 0.6 2.1 v 0 c -0.1 2.3 -1.4 3.7 -3.1 4.5 c -2.1 0.9 -4.8 1 -7.5 1.1 c -2.6 0 -5 -0.2 -6.4 0 c -4 0.5 -9.6 2.2 -12.8 5.3 c 0 0 0 0 0 0 c -0.1 0.1 -1.9 1.9 -2.9 3.4 c -0.8 1 -1.2 2.3 -1.7 3.5 c -0.2 1.3 -0.4 2.2 -0.4 2.2 l -0.1 0.6 l -0.6 -0.2 c -1.4 -0.9 -2.4 -2.2 -3.2 -3.8 c -0.6 -1 -1 -2.1 -1.5 -3 c -0.2 2.5 -0.6 4.9 -1.1 7.1 c -0.8 2.5 -2 5 -4.3 6.8 l -0.4 0.3 l -0.2 -0.6 c -1.1 -3.6 -2.3 -5.9 -3.9 -7.2 c -0.1 2.2 -0.5 4.6 -2.1 7.2 L 242 263 c 1.8 -2.8 2.2 -5.4 2 -7.7 l -0.2 -0.9 l 0.8 0.5 c 2.2 1.3 3.5 4 4.9 7.7 c 1.6 -1.7 2.6 -3.6 3.4 -5.9 c 0.5 -2.5 1 -5.4 1.5 -8.5 l 0.2 -1.5 l 0.6 1.4 c 0.4 1.4 1.1 3 1.9 4.5 c 0.6 1.2 1.4 2.2 2.4 2.9 c 0 -0.4 0.1 -0.7 0.4 -1.6 c 0.3 -1.3 0.9 -2.8 1.6 -3.7 c 1.3 -1.7 3 -3.5 3 -3.5 v 0 v 0 c 3.4 -3.4 9.2 -5.2 13.4 -5.6 c 1.5 -0.3 4 -0.1 6.5 -0.2 c 2.7 0 5.3 -0.2 7 -0.8 c 1.7 -0.8 2.6 -1.9 2.7 -3.8 c 0 0 0 0 0 0 c 0 -0.7 -0.1 -1.2 -0.4 -1.8 c -0.5 -0.6 -0.9 -1.2 -1.1 -2 c -0.7 -1.2 -0.7 -4.4 -0.5 -5.6 Z" />
    <path class="detail" d="m 141.5 240.5 c 0 0 4.8 1.2 6.6 1.3 l 11.1 1.1 c 0 0 -8.2 0.1 -11.7 0 c -2 -0.6 -6.7 -1.7 -6.7 -1.7 Z m 6.7 -25.2 c 0 0 2.3 1.4 4.3 5.4 c 2.5 4.6 4.3 8.3 8.4 11.4 c 2.1 1.5 6.6 3.1 6.6 3.1 c -4.2 -0.1 -7.5 -2 -10.5 -4.6 c -2.6 -2.4 -3.8 -6.8 -5.5 -9.5 c -2.5 -4 -3.5 -4.4 -3.5 -4.4 Z" />
    <g class="armed">
      <path d="m 163.8 206 c 1.3 1.8 -0.6 4.2 -2.9 5.4 c -2.1 1.1 -7 1.3 -7 -1 c -0.3 -5.4 -4 -9.4 -8.1 -12.3 c 7.4 -1.6 13.9 1.9 18 7.9 Z" />
      <path d="m 135.5 213.8 c 2 0.7 1.5 3.9 0.3 6.1 c -1.2 2.1 -5.4 4.7 -6.5 2.7 c -3 -4.4 -8.3 -5.8 -13.3 -6.3 c 5.5 -5.2 12.8 -5.7 19.5 -2.5 Z" />
      <path d="m 133.1 245.9 c 2 -0.9 4 1.6 4.6 4 c 0.6 2.4 -0.6 7.1 -2.9 6.6 c -5.1 -1 -9.9 1.5 -13.8 4.8 c 0.2 -7.5 5.2 -13 12.1 -15.4 Z" />
    </g>
  </g>
  <g id="lion-head">
    <g id="lion-mouth">
      <path style="fill:#990000;" d="m 254.4,90.9 c 8.2,15.8 11.2,24.1 -5.5,39.3 l 12,1 8.3,-10.9 -0.2,-16.4 -11.2,-12.23 z" />
      <path class="langued" d="m 223.4,95.78 c 0,0 -2.5,4.52 -2,7.52 0.6,3.9 2.5,7.6 6,9.3 5.4,2.6 15.4,-0.3 21.3,1.2 9,2 21.4,13 21.4,13 l 1.4,-13.8 c 0,0 -12.1,-8 -19.7,-9.8 -6.7,-1.4 -15.7,3.6 -22.5,2.6 -1.9,-0.4 -2.7,-1.6 -4,-3.1 -1.6,-1.8 -1.9,-6.92 -1.9,-6.92 z" />
      <g id="teeth" style="fill:#ffffff;stroke-width:0.5;">
        <path d="m 239.6,96.48 c 0.6,2.78 0.1,2.38 2.8,8.22 0.8,-3.2 1,-4.92 2.6,-8.57 -0.2,-1.09 -4.8,-3.38 -5.4,0.35 z" />
        <path d="m 237.9,120.2 c 0.2,-3 -0.2,-2.4 1.8,-8.5 1.1,3 1.6,5.6 3.7,9.1 0,1.1 -4.4,2.9 -5.5,-0.6 z" />
      </g>
    </g>
    <path d="m 318.9,168.6 c -2.8,4 1.5,10.7 3.9,14.4 2.4,3.7 3.1,12.2 2.1,16.5 -2.9,13.1 -0.8,14.5 2.2,27.2 v 0 c -3.3,-1.5 -7.3,-3.8 -9.3,-11.7 -4.4,3.7 -1.7,12.4 -1.2,18 -5.1,-4.1 -10.5,-11.3 -9.7,-17.6 -4.5,3.2 -3,7.2 -1.9,12.4 -6,-3.2 -8.2,-9.5 -6.9,-16.1 -3.7,3.3 -6.7,4.6 -9.3,5.1 -4.8,0.9 -8.6,-1 -13.9,1 -2.4,0.9 -5.1,2.7 -8.4,5.9 -0.3,-9 0.7,-13.8 8.5,-19.2 0,0 -3.4,0 -7.9,1.5 -3.2,1 -8.7,7.7 -11.7,9.2 -3.1,1.5 -10.2,3.1 -10.2,3.1 2,-3 3.1,-7.4 2,-10.1 0,0 -5.8,7.4 -9.9,9.7 -3.8,1.9 -12.4,2.6 -12.4,2.6 0,0 1.4,-1.8 1.8,-3.1 0.4,-0.8 0.7,-2.5 0.7,-2.5 0,0 -4.9,1.3 -8.6,0.2 -2.6,-0.9 -6.6,-3.9 -6.6,-3.9 l 5,-3 c 0,0 -4.5,0.3 -7,-1.2 -1.9,-1.1 -3.6,-3.2 -4.1,-5.4 -0.7,-2.8 -1.2,-4.6 0.7,-6.8 1.5,-1.9 2.4,-2.3 4.8,-2.2 1.1,0.1 2.1,0.4 3,1 0.6,0.3 1,0.7 1.3,1.2 1.1,1.1 1.5,4.5 1.5,4.5 0,0 1.8,-1.5 3,-3.9 1.1,-2.4 1.8,-4.8 2.5,-5.9 1,-2 4.4,-5.5 4.4,-5.5 0,0 -3.2,-1.5 -6.2,-0.6 -6.5,1.9 -10.2,2.5 -13.1,0.9 -2.2,-1.2 -3.9,-3.6 -5.8,-7.5 0,0 3.5,0.5 5.2,0.1 2.2,-0.6 5.1,-3.4 5.1,-3.4 0,0 -5.2,0.5 -7.9,-1.4 -5.8,-4.2 -7.2,-9.4 -6.6,-13.8 1,-7.2 7.6,-12.5 18.4,-10.9 5.1,0.7 13.3,7.2 13.3,7.2 -1.3,-2.7 -0.4,-6 -1.2,-8.5 -1,-2.7 -3.6,-4 -6.4,-2.8 0.6,-5.5 5.7,-6.1 9,-5.5 3.3,0.6 8.5,7.2 12.6,4 l 2.9,-2.2 c 2.2,-2.7 -3.4,-5.2 -5.9,-5.1 l -7.6,0.5 c 0,0 1.5,-4.2 1.1,-6 -0.2,-1.8 -1,-3.2 -1.1,-5 0.1,-2 0.1,-3.4 1.8,-4.5 1.5,-0.7 6,-0.7 7.7,-0.4 1.4,0.4 2.5,1.2 3.5,2.1 2.7,2.2 4.8,5.3 8,6.5 1.4,0.6 3.1,0.4 4.4,-0.3 12.5,-5.9 9.1,-26.3 -1.7,-33.08 -0.9,2.52 -2.3,3.47 -3.9,3.92 -2.2,0.52 -4.6,1.02 -7.1,-0.26 -3.7,-1.99 -8.3,-3.22 -11.4,-3.49 -0.5,-0.4 -1.5,-7.48 -0.3,-11.4 0.5,-1.26 -0.3,-2.88 -0.8,-3.99 -1.1,-2.7 -1.7,-4.52 -0.9,-6.35 1.2,-2.74 0.9,-2.65 3.6,-3.71 3,-1.23 14.6,-2.55 14.6,-2.55 0,0 3.9,-3.85 6.6,-5.88 7.1,-5.42 16.9,-8.33 25.6,-8.67 7.3,-0.28 14.1,2.71 20,6.15 6.1,3.55 11.2,8.42 16.3,14.03 3.9,3.96 11.3,0.26 12.2,-0.54 1,6.35 -4.3,10.74 -9.2,13.86 -0.8,0.41 -2.2,1.36 -2.5,2.28 l -0.7,2.31 c 3.2,-3.4 7.8,-5.13 19.6,-2.56 -1.5,2.84 -1.8,11.22 -3.7,16.43 -1.4,3.7 -3.9,7.8 -7.5,9.5 -3.7,1.9 -3.7,1.8 -7.8,2.4 0,0 2.4,1.5 4.7,2.9 2.2,1.3 2.8,5 5.1,6.1 1.9,1 5.6,0.8 5.6,0.8 0,0 -4.9,4.6 -7.7,5.4 -3.5,1 -10.2,-1.2 -10.2,-1.2 0,0 -0.3,3.2 2.7,5.9 2.1,1.9 7.2,5.3 8.1,7.2 2.2,4.9 1.2,13.2 1.2,13.2 -2.5,-7.7 -8.4,-7.9 -11.6,-7.4 0,0 3.1,3.6 3.6,6.1 1.1,6 -2.1,13.8 -2.1,13.8 z" />
    <path class="detail" d="m 230.2,140.5 c 2.4,1.2 4.5,4 6.3,6.3 1.9,2.3 3.7,4.4 6.2,5.1 1.8,0.4 4.5,-0.4 6.7,-1.4 2.2,-0.9 4,-2 4,-2 -1.8,3.2 -7.2,5.2 -10.6,4.6 -2.8,-0.5 -5,-3.5 -7,-5.8 -1.8,-2.2 -3.6,-4.5 -6,-5.7 -1.1,-0.4 -2.6,-0.5 -3.9,-0.2 -1.4,0.3 -3.6,1.8 -3.6,1.8 l -0.4,-0.7 c 2.2,-1.6 5.4,-3.7 8.3,-2 z m 31.6,5.8 c 0,0 -0.8,1.9 -2,3 -1.3,1.3 -2.8,2 -3.9,3.1 -0.9,0.8 -1.4,1.9 -1.9,3 -0.6,1.2 -1.1,2.4 -2,3.4 -2.2,2.4 -4.8,4 -8,4.5 -2.9,0.5 -6,0.2 -8.8,-1.1 -2,-1 -3.4,-2.8 -4.5,-4.6 -0.8,-0.9 -1.7,-3.6 -1.7,-3.6 l 0.3,-2.4 c 0,0 1.4,4.2 1.9,4.9 1.3,1.8 2.6,3.7 4.4,4.6 2.4,1.1 5.4,1.3 8.1,0.8 3,-0.5 5.7,-1.4 7.8,-3.6 0.7,-0.9 1.2,-2 1.8,-3.1 0.4,-1.3 1,-2.6 2.1,-3.4 1.2,-1.2 3.2,-2 4.3,-3.2 z m -50.1,5.5 c 1.8,-0.1 3.6,-0.1 5.2,0.2 2.4,0.4 4.4,1.9 6.3,3.2 3.9,2.8 6.3,7.1 10.2,9.4 0.8,0.4 2.3,1 3.5,1.2 l 3.3,0.5 c 0,0 -2.9,0.7 -4.1,0.5 -1.2,-0.3 -2.3,-0.4 -3.3,-1 -4.1,-2.4 -7,-7.1 -10.7,-9.7 -1.8,-1.3 -3.1,-1.8 -5.2,-2.2 -3.2,-0.5 -6.6,-0.6 -9.4,0.8 -1.9,1 -3.4,2.1 -4.1,4 -0.5,1.8 -0.5,3.7 0.3,5.4 0.6,1.1 1.6,1.9 2.8,2.5 1.3,0.7 2.7,0.9 4,0.8 0.6,-0.1 1.5,-0.1 2.3,-0.5 0.7,-0.4 1.4,-0.8 1.4,-0.8 -2.5,3.3 -5.7,2.8 -8.1,1.5 -1.4,-0.7 -2.7,-1.8 -3.4,-3.1 -0.9,-1.9 -1.4,-4.2 -0.8,-6.3 0.8,-2.3 2.9,-4 4.9,-5 1.6,-0.8 3.3,-1.2 4.9,-1.4 z m 46.9,10.3 c 0,0 -1,1.8 -2.5,3.8 -1.3,2.1 -2.5,4.8 -4,5.9 -2.7,1.7 -5.1,2.1 -7.8,2.4 -1.5,0.2 -4.3,-0.4 -6,-0.7 -0.7,0 -0.9,-0.3 -1.4,-0.5 0.4,0.4 1,1 1.5,1.4 3.1,2.5 6.2,4.6 10.2,4.9 3.7,0.2 9.3,-1.9 11.5,-4.9 0.8,-1.2 1.2,-2.8 1.6,-4.4 0.4,-1.6 0.4,-3.6 1.5,-4.9 0,0 0.8,-1.2 1.4,-1.7 0.9,-0.7 3.1,-1.4 3.1,-1.4 0,0 -2.7,1.5 -3.8,3.6 -0.7,1.2 -0.9,3 -1.3,4.7 -0.4,1.6 -0.9,4.1 -1.9,5.3 -2.5,3.4 -7.6,4.9 -11.8,4.8 -0.9,-0.1 -2.2,-0.5 -3.1,-0.8 0.9,0.7 1.7,1.2 2.4,1.6 3.3,1.9 7.4,3 11.2,2.5 2.8,-0.4 5,-1 6.9,-3 2.5,-2.3 2.1,-3.7 2.8,-5.7 0.5,2.2 -0.2,4.5 -1.6,6.2 -2.1,2 -5.1,3.4 -7.9,3.8 -4,0.5 -8.3,-0.6 -11.8,-2.6 -1.6,-0.7 -3.5,-2.2 -4.5,-2.9 -1.8,-1 -3.7,-2.6 -5.2,-3.9 -3.2,-2.5 -6.2,-5.3 -10,-6.3 -2.9,-0.7 -6.8,-0.6 -9.5,0.5 -1.4,0.5 -2.6,0.9 -3.7,2 -1.3,1.1 -3,2.8 -3,2.8 l -0.2,-0.9 -3.5,-0.2 -2.8,-1 c 0,0 1.9,0.4 3.9,0.3 1.6,-0.3 3.4,-0.9 3.9,-1.4 1.3,-1.2 3.4,-2.5 5,-3.1 2.9,-1.2 7,-1.3 10,-0.4 2.8,0.8 5.2,2.3 7.3,4.1 0.2,0 1.5,0.3 3.2,0.6 1.8,0.3 4,0.5 5.2,0.3 2.6,-0.3 4.7,-0.7 7.3,-2.4 1.2,-0.9 3.2,-3.5 4.5,-5.5 z m -56,14.6 c 0,0 1.2,0.8 2.8,1.6 1.6,1 3.6,1.8 4.8,1.9 2.1,0.1 4,-1 6,-2 2,-1.1 4,-2.8 6.3,-3.1 3.2,-0.4 6.6,0.2 9.5,2 -3,-0.5 -6.1,-1.1 -9.4,-0.8 -2,0.3 -3.6,1.8 -5.6,2.9 -1.9,1.2 -4.3,2.4 -6.7,2.4 -1.5,-0.1 -3.3,-1 -5,-1.8 -1.6,-1 -3.1,-2.5 -3.1,-2.5 z m 77.3,-8.3 c 0,0 -0.5,0.9 -0.8,1.9 -0.3,1.2 -0.8,2.4 -0.9,3 0,1.5 0.5,2.7 0.6,3.9 0.2,1.3 0.4,3.2 0,4.8 -0.7,3.6 -2.4,6.9 -5.8,8.8 -3.3,1.8 -7.3,2.5 -10.7,2.7 -0.8,0.2 -2.4,0.1 -3.9,0.5 -2.2,0.8 -4.7,1.6 -6,2.5 -2,1.5 -3.5,3.9 -4.4,6.3 -0.3,0.9 -0.3,2.3 -0.3,3.7 0,1.1 0.2,2.1 0.2,2.1 l -0.8,0.2 c 0,0 -0.1,-1.1 -0.2,-2.4 0,-1.2 0,-2.7 0.3,-3.9 0.9,-2.5 1.8,-4.9 3.9,-6.5 1.5,-1.1 4.8,-2.1 7.1,-2.7 0.2,-0.1 0.2,-0.1 0.3,-0.1 -0.4,-0.1 -0.8,-0.1 -1.2,-0.1 -4.4,-0.9 -7.1,-3.1 -10.2,-5.8 -2.2,-1.8 -4.9,-3.3 -7.8,-4.6 -2.1,-1 -5.4,-0.8 -7.6,-0.3 -0.9,0.3 -2.1,0.5 -3.1,1.2 -1,0.6 -1.8,1 -1.8,1 l -0.5,-0.6 c 0,0 0.8,-0.7 1.9,-1.3 1,-0.7 2.4,-1.4 3.4,-1.7 2.4,-0.5 5.7,-0.8 8.1,0.2 3,1.3 5.7,3 8,5 3.2,2.6 5.5,5.2 9.8,6.1 1.2,0.1 2.6,0.2 4.1,0.1 0.3,-0.1 0.8,-0.2 0.8,-0.2 3.2,-0.1 6.7,-1.4 9.7,-2.9 3,-1.7 4.8,-4.6 5.6,-8.1 0.2,-1.5 0.2,-2.6 -0.1,-3.9 -0.1,-1.2 -0.4,-2.2 -0.3,-3.8 0,-0.8 0.8,-3 1.5,-3.9 z m 24.8,-1.5 c 0,0 1,1.6 0.9,2.5 -0.2,1.1 -0.4,2.3 -0.7,3.1 -0.8,1.9 -2.5,3.1 -3.1,4.7 -0.3,0.7 -0.4,2.1 -0.5,3.5 0,1.4 0,2.8 0.2,3.5 1.8,6.5 3.6,9.5 3.2,14.6 -0.3,3.2 -1.2,6.2 -3.6,10.2 -0.7,1 -2.1,2.2 -2.9,3.4 l -0.7,-0.5 c 3.8,-5.5 5.4,-9.8 5.7,-13.9 0.4,-4.8 -0.8,-7 -2.5,-13.5 -0.3,-0.9 -0.2,-2.4 -0.2,-3.9 0.1,-1.4 0.2,-2.8 0.5,-3.7 0.8,-1.9 2.4,-3.1 3.1,-4.7 0.2,-0.7 0.5,-1.9 0.7,-2.8 z m -19,8.1 c 0,0 1,4.1 1.3,6.4 0.2,2.7 0.4,6.2 -1,8.6 -1.9,3.3 -5,4.7 -8.4,5.9 -4.4,1.6 -9.6,0.6 -13.7,1.8 -2.9,0.8 -6.7,2.9 -8.5,5.2 -1.5,1.6 -2,3.6 -2.5,5.5 -0.5,2 -1.1,4.1 -2.4,6 -0.3,0.2 -0.4,0.6 -0.7,0.8 1,-0.4 2.1,-1 3,-1.6 1.4,-0.9 1.8,-1.8 2.5,-2.9 0.5,-0.8 1.1,-1.9 1.6,-3.2 0.6,-1.1 1.1,-2.3 1.9,-3.2 2.1,-2 4.9,-3.3 7.8,-3.9 1,-0.2 2.3,0 3.7,0 1.4,0.1 2.8,0.3 3.7,0.2 l 4.9,-1.3 c 0,0 -3.3,1.9 -4.9,2 -1.5,0.2 -2.4,0 -3.8,-0.1 -1.3,-0.1 -2.7,-0.1 -3.4,0 -2.8,0.6 -5.5,1.8 -7.4,3.8 -0.7,0.6 -1.3,1.8 -1.7,2.9 -0.6,1.1 -1.1,2.4 -1.7,3.3 -0.7,1 -1.2,2 -2.8,3.1 -1.9,1.2 -4.6,2.2 -5.1,2.4 -1.3,1.2 -2.6,2 -2.6,2 l -0.4,-0.6 c 0,0 3.2,-2.4 4.7,-4.2 1.2,-1.7 1.7,-3.7 2.3,-5.6 0.5,-2.1 0.5,-4.2 2,-5.9 2.1,-2.4 6.5,-4.7 9.5,-5.6 4.5,-1.2 9.6,-0.1 13.7,-1.6 3.4,-1.3 5.9,-2.5 7.6,-5.5 1.2,-2.2 1.5,-5.7 1.3,-8.2 z m 8.1,6 c 0.3,2.1 0.4,4.7 0.3,6.5 -0.2,2.2 -0.8,4.3 -1.9,6.2 -1.1,2.3 -2.3,4.5 -4.2,6.2 -1.8,1.6 -3.9,3 -6.2,4 -1.1,0.3 -4.3,0.7 -6.1,1.4 -2.5,1.1 -4.1,2.2 -4.1,2.2 l 2.8,-2.7 -0.4,-0.6 c 0,0 4.8,-0.6 7,-1.5 2.1,-0.9 4.2,-2.1 6,-3.7 1.8,-1.5 3.4,-3.5 4.5,-5.5 1,-1.9 1.5,-3.9 1.7,-6.1 0.2,-1.6 0.1,-4.2 -0.2,-6.4 -0.2,-2.1 -0.5,-3.9 -0.5,-3.9 0.4,0.1 1.2,2.7 1.3,3.9 z m 15.8,4.7 c -0.1,3 1.5,6.6 1.8,9.8 0.3,2.6 0.9,5.7 0.5,8.4 -0.3,2.2 -0.9,4.5 -2,7.2 -1.1,2.6 -3,5.6 -3,5.6 l -0.1,-1.2 -0.8,0.3 c 0,0 2,-2.9 3,-5.5 1.1,-2.5 1.6,-4.3 1.9,-6.5 0.3,-2.3 -0.1,-6.1 -0.5,-8.6 -0.3,-3.1 -1.8,-6.3 -1.5,-9.6 0.2,-2.1 1.1,-3.9 1.6,-4.7 0.7,-1.1 0.9,-0.8 1.2,-1.1 -1.4,1.7 -1.8,3.8 -2.1,5.9 z m -72.1,2.7 c 0,0 -2.1,0.7 -3.4,1.2 -1.3,0.4 -2.8,1 -3.5,1.5 -1.8,1.4 -2.5,3.2 -3.7,5.4 -1.4,2.3 -1.8,6.3 -3.7,8.5 -0.9,1 -1.9,2 -3.2,2.6 -1.1,0.6 -3.4,1.5 -3.4,1.5 l -0.2,-0.8 -2.5,-0.3 c 0,0 3.8,-0.5 5,-1.1 1.1,-0.6 2.4,-1.6 3.2,-2.3 1.7,-2 2.3,-5.5 3.7,-8 1.2,-2.2 1.6,-4.5 3.5,-6.1 1,-0.7 3.2,-1.5 4.6,-1.7 z m -26.7,7.6 c 0.3,0 0.4,0 0.6,0.2 0.4,0.1 0.6,0.6 0.7,0.7 0,0.4 -0.1,0.6 -0.1,1.1 0,0.1 -0.3,0.3 -0.4,0.3 -0.1,0 -0.6,0 -0.8,-0.3 -0.1,-0.4 -0.1,-0.7 -0.3,-0.7 -0.3,0.1 -0.3,0.1 -0.4,0.3 -0.3,0.4 -0.3,1 0,1.6 0.3,0.8 0.8,1.3 1.4,1.6 1,0.4 2.2,0.3 3.3,-0.2 0.4,-0.2 0.9,-0.7 1.3,-1.2 0.5,-0.5 0.8,-1 0.8,-1 l 0.7,0.8 c 0,0 -0.5,0.8 -0.9,1.3 -0.5,0.5 -1,0.8 -1.5,1.1 -1.2,0.5 -2.8,0.7 -4,0.1 -0.9,-0.3 -1.6,-1.1 -2,-1.9 -0.4,-0.9 -0.5,-2 0,-2.9 0.3,-0.3 0.6,-0.6 0.9,-0.8 0.3,-0.1 0.5,-0.1 0.7,-0.1 z m 38.7,-3.4 c 0,0 -3,0.8 -4.2,1.4 -2.4,1.4 -4.1,3.1 -4.9,5.8 -0.5,1.1 -0.3,2.1 -0.3,3 0.1,1.1 0.6,2.9 0.5,4.3 -0.2,2.9 -0.7,5.2 -2.3,7.8 -0.4,0.8 -1.3,1.8 -2.1,2.6 -0.8,1 -1.4,1.7 -1.4,1.7 l -7.1,1.1 c 7.8,-2.2 11.3,-5.7 11.9,-14 0.1,-1.3 -0.1,-2.2 -0.2,-3.3 -0.2,-1.1 -0.4,-2.4 0.2,-3.8 1.1,-3 2.5,-4.3 3.9,-5.2 1.9,-1.3 4,-1.2 6,-1.4 z m -11.8,2 c 0,0 -0.6,0.3 -1.3,0.6 -0.6,0.3 -1.5,0.7 -1.9,1.1 -0.9,1 -1.4,2.6 -1.6,4.1 -0.2,0.9 -0.1,2 0.2,3 0.1,1.1 0.4,3.1 0.3,4.3 -0.6,3.6 -2.5,5.9 -5.6,7.4 l -4.7,0.3 c 2.9,-0.7 5.1,-1.6 6.7,-3.3 1.3,-1.3 2.2,-3.1 2.6,-5.4 0.2,-1 0.1,-2.1 -0.2,-3.1 -0.1,-1.1 -0.4,-2.6 -0.3,-3.6 0.4,-1.8 0.9,-3 1.8,-4 0.9,-1 2.2,-1.6 4,-1.4 z m 79.9,-8.5 c 0,0 -0.1,2.8 0.1,3.8 0.4,2.9 2.7,5.5 3.1,8.6 0.5,3.2 0.4,6.7 -0.1,9.8 -0.3,1.4 -1.5,3.9 -1.9,5.8 -0.4,1.3 -0.4,2.2 -0.4,2.2 l -0.7,-1.5 -1.2,1.2 c 0,0 2.5,-5.7 2.9,-7.7 0.5,-3.2 0.5,-6.4 0.1,-9.7 -0.5,-2.7 -3.2,-7.1 -2.4,-10.1 z m -20.9,5.9 c 0,0 0.7,2.1 0.7,3.4 0.1,1.3 0,2.8 -0.1,3.9 -0.6,2.7 -0.8,5.5 -2.6,7.7 -1.8,2.2 -4.9,3.8 -7.5,4.8 -3.1,1.2 -6.9,1.3 -9.4,2.9 -1.9,1.1 -3.9,3.8 -3.9,3.8 l -0.6,-0.6 c 0,0 1.5,-2.8 3.6,-4 2.8,-1.8 7.1,-1.8 10,-2.8 2.6,-1 5.1,-2.4 6.8,-4.5 1.6,-2.2 2.2,-4.8 2.8,-7.5 0.2,-0.9 0.2,-2.5 0.2,-3.8 z m -69.2,11.5 c 0,0 0.3,2 0.1,3 -0.3,1 -0.7,2 -1.1,2.7 -0.9,1.5 -2.4,2.3 -3.9,3 -2.3,1.2 -5.2,2.3 -5.2,2.3 l -5.2,-3.2 c 0,0 2.3,0.8 4.9,1 2,0.1 4.2,-0.3 5.2,-0.8 1.3,-0.6 2.7,-1.5 3.5,-2.7 0.3,-0.6 0.7,-1.6 1,-2.5 z m 61.5,0.8 c -0.9,2 -4.4,3.4 -5.2,3.9 -2.3,0.7 -5.6,0.7 -7.6,1.5 -2,0.8 -3.7,3.1 -5.1,5 -1.2,1.4 -2.4,3.8 -3.3,5.7 -0.7,2 -1.3,3.6 -1.3,3.6 v -2.9 c 0,0 -0.2,1 0.7,-1 0.8,-2 1.8,-5.3 3,-6.8 1.6,-1.9 2.8,-3.7 5.2,-4.8 2.2,-1 5.7,-0.4 7.7,-1.1 2.1,-0.8 5.9,-3.1 5.9,-3.1 z m 26.1,-0.7 c 0,0 1.6,3.2 0.7,6.3 -0.2,0.7 -0.5,1.7 -1.1,2.9 -0.6,1.1 -1.6,2.4 -2.1,3.5 -0.9,2.4 -1.2,4.3 -1.3,5.8 0,1.3 0.5,3.2 1.1,4.7 0.6,1.6 2.2,4.1 2.2,4.1 l -1.7,-1 c 0,0 -0.7,-0.9 -1.4,-2.5 -0.9,-1.9 -1.8,-4.4 -1.8,-6.2 0.1,-3.4 2.2,-5.9 3.7,-8.8 0.6,-1 0.9,-2.1 1.2,-2.7 0.8,-2 0.6,-4.1 0.5,-6.1 z m -8.8,2 c 0.8,1.1 0,3.7 -0.5,4.7 -0.6,1.2 -1.8,2.1 -2.7,3 -0.9,0.9 -1.7,1.8 -2.1,2.8 -0.3,1.3 -0.2,3.5 0.2,4.7 0.4,1.3 1.3,2.8 2.3,4 0.9,1.3 1.7,2.2 1.7,2.2 l -0.5,0.5 c 0,0 -0.9,-0.9 -1.9,-2.1 -0.9,-1.4 -2.3,-3.4 -2.6,-4.8 -0.5,-1.4 -0.6,-3.2 -0.2,-4.7 0.3,-1.3 1.6,-2.3 2.5,-3.1 0.9,-1 1.9,-1.7 2.4,-2.8 0.4,-0.6 0.7,-1.7 1,-2.6 0.2,-0.9 0.4,-1.8 0.4,-1.8 z" />
    <path class="detail" d="m 268.3,101.6 c -0.2,0.7 1.7,3.3 2.1,4.3 1.3,2.3 3,5 3.5,6.7 1.3,4.1 1.3,8.9 0,13 -1.4,4 -4.2,7.4 -7.7,9.7 -3.3,2.2 -7.2,2.3 -11.3,2.2 -1.6,0 -4.1,-0.6 -6,-1.2 -2.1,-0.6 -4.4,-1.1 -4.4,-1.1 l 1.5,1.8 c 0,0 0.4,0.1 2.5,0.8 2,0.5 4.5,1.2 6.3,1.3 4.1,0.1 8.5,-0.1 12.1,-2.5 3.9,-2.6 6.8,-6.1 8.4,-10.6 1.4,-4.3 1.5,-9.4 0,-13.8 -0.7,-2.1 -2.3,-4.9 -3.7,-7 z" />
    <path class="detail" d="m 291.4,88.93 c 1.8,13.57 -12,20.37 -22.3,13.77 l 0.8,1.8 c 2.9,2.4 6.4,2.7 9.3,2.3 2.4,-0.1 4.4,-0.7 6.3,-1.8 8.5,-5.06 7.8,-13.65 5.9,-16.07 z" />
    <path class="detail" d="m 331.4,93.84 c -4.8,-0.42 -8.6,2.1 -10.7,4.99 -2,2.87 -2.8,6.97 -2.1,11.57 0,0 2,0.4 2.9,0.2 1.9,-0.2 5.4,-1.6 5.4,-1.6 -2.8,2.9 -5.6,4.3 -9.5,2.9 l -0.5,-0.1 -0.1,-0.6 c -0.8,-5.2 -0.1,-10.8 2.4,-14.28 3,-4.11 8.7,-5.63 12.2,-3.08 z" />
    <path class="detail" d="M 258.8,70.76 C 257.6,69.45 258,68.88 258,68.88 l 0.4,-1.1 0.8,0.93 v 0 0 c 0,0 2.9,3.43 8.9,6.56 2.6,1.3 6.7,1.78 9.8,3 1.6,0.73 3.1,1.57 3.7,3.17 0.6,1.59 0.5,3.47 -0.6,5.98 -1,-0.91 -0.1,-2.97 -1,-5.29 -0.3,-0.98 -1.2,-1.54 -2.6,-2.13 -2.8,-1.07 -6.9,-1.55 -10,-3.13 -5.7,-2.98 -7.6,-4.8 -8.6,-6.11 z" />
    <path id="lion-nose" style="fill:#990000;stroke:none;" d="m 234.3,81.21 c 0,0 1.9,-0.54 2.9,-1.05 0.1,-4.25 2.7,-4.15 5.3,-3.45 0.5,-0.66 0.8,-1.35 1.1,-2.15 0.3,-0.92 0.3,-2.34 -0.4,-3 -2.8,-2.5 -6.5,-3.07 -9.4,-1.77 -1,0.51 -1.3,1.78 -1.6,2.82 -0.4,1.04 -0.2,2.12 -0.1,3.08 0.3,1.92 2.2,5.52 2.2,5.52 z" />
    <g id="lion-eye">
      <path style="fill:#ffffff;" d="m 260.6,76.75 c -0.9,2.41 1.1,7.92 5.1,9.46 4.1,1.66 8.8,-1.37 9.6,-3.91 0.8,-2.53 -2.7,-3.31 -6.8,-4.86 -4,-1.53 -7.2,-3.35 -7.9,-0.69 z" />
      <g style="stroke:none;">
        <path style="fill:#333333;" d="m 261.8,78.88 a 3.388,3.701 5.923 0 0 1.6,4.99 3.388,3.701 5.923 0 0 4.6,-1.85 3.388,3.701 5.923 0 0 -1.6,-4.88 3.388,3.701 5.923 0 0 -4.6,1.74 z" />
        <path style="fill:#000000;" d="m 265.3,78.94 c 0.6,0.41 1.2,1.41 0.7,2.32 -0.4,1.02 -1.4,1.29 -2.2,0.87 -0.9,-0.44 -1.3,-1.53 -1,-2.46 0.5,-0.9 1.6,-1.17 2.5,-0.73 z" />
        <path style="fill:#ffffff;" d="m 264.6,78.05 c 0.6,0.29 0.9,1.03 0.6,1.71 -0.3,0.69 -1,0.86 -1.6,0.57 -0.6,-0.28 -0.8,-1.02 -0.6,-1.7 0.3,-0.69 1.1,-0.86 1.6,-0.58 z" />
      </g>
    </g>
  </g>
</g>
<use id="shine" fill="url(#rg)" stroke="#000" stroke-width="3" xlink:href="#shield" />
</svg>
