<?xml version="1.0" standalone="no"?><!-- Generator: Gravit.io --><svg xmlns="http://www.w3.org/2000/svg" xmlns:xlink="http://www.w3.org/1999/xlink" style="isolation:isolate" viewBox="1039 -21 620 679" width="620" height="679"><defs><clipPath id="_clipPath_4L0XA8HhjMtuBDJoQJZ0NED8zPEY8D7n"><rect x="1039" y="-21" width="620" height="679"/></clipPath></defs><g clip-path="url(#_clipPath_4L0XA8HhjMtuBDJoQJZ0NED8zPEY8D7n)"><g><g><path d=" M 1051 -9 L 1051 248 C 1051 534 1349 646 1349 646 C 1349 646 1647 534 1647 248 L 1647 -9 L 1051 -9 Z " fill="rgb(189,189,189)"/><radialGradient id="_rgradient_5" fx="220" fy="220" cx="220" cy="220" r="405" gradientTransform="matrix(596,0,0,655,1051,-9)" gradientUnits="userSpaceOnUse"><stop offset="0%" stop-opacity="0.3" style="stop-color:rgb(255,255,255)"/><stop offset="20%" stop-opacity="0.2" style="stop-color:rgb(255,255,255)"/><stop offset="60%" stop-opacity="0.1" style="stop-color:rgb(102,102,102)"/><stop offset="100%" stop-opacity="0.13" style="stop-color:rgb(0,0,0)"/></radialGradient><mask id="_mask_fWjuYUOVqBMIUisIj7lsP49l4zk2cyYI" x="-200%" y="-200%" width="400%" height="400%"><rect x="-200%" y="-200%" width="400%" height="400%" style="fill:white;"/><path d=" M 1051 -9 L 1051 248 C 1051 534 1349 646 1349 646 C 1349 646 1647 534 1647 248 L 1647 -9 L 1051 -9 Z " fill="black" stroke="none"/></mask><path d=" M 1051 -9 L 1051 248 C 1051 534 1349 646 1349 646 C 1349 646 1647 534 1647 248 L 1647 -9 L 1051 -9 Z " fill="url(#_rgradient_5)" mask="url(#_mask_fWjuYUOVqBMIUisIj7lsP49l4zk2cyYI)" vector-effect="non-scaling-stroke" stroke-width="6" stroke="rgb(0,0,0)" stroke-linejoin="miter" stroke-linecap="butt" stroke-miterlimit="4"/></g></g></g></svg>